# Blender 4.1.0
# www.blender.org
mtllib fireball.mtl
o Icosphere
v 2.437053 2.133901 0.009291
v 1.770123 2.855687 0.552326
v 1.825015 1.834095 0.846749
v 1.834209 1.205857 0.007638
v 1.782601 1.808691 -0.905633
v 1.733426 2.877126 -0.554977
v 0.411236 2.337484 0.914222
v 0.469312 1.311251 0.541431
v 0.373017 1.349013 -0.496510
v 0.233538 2.323991 -0.878808
v 0.312579 2.866768 0.005807
v -1.328921 1.974969 -0.020990
v 1.933961 1.870969 0.748388
v 2.059721 1.901204 0.672755
v 2.184515 1.935013 0.586001
v 2.311681 1.970932 0.493085
v 2.367848 2.017855 0.356554
v 2.400162 2.061088 0.228081
v 2.423997 2.099518 0.113206
v 2.414561 2.220863 0.073503
v 2.489368 2.351228 0.162023
v 2.447633 2.477556 0.254289
v 2.338311 2.584138 0.335731
v 2.209362 2.679803 0.409682
v 2.067961 2.761218 0.473515
v 1.915451 2.814952 0.517848
v 1.819571 2.769449 0.633576
v 1.869351 2.669822 0.724907
v 1.907347 2.542125 0.807084
v 1.926598 2.391804 0.867567
v 1.889507 2.220194 0.824439
v 1.872622 2.080446 0.834258
v 1.836622 1.957141 0.809488
v 1.752560 2.865173 -0.406638
v 1.773835 2.866095 -0.267884
v 1.797579 2.885253 -0.132729
v 1.812389 2.898129 0.008828
v 1.824278 2.921692 0.156129
v 1.803475 2.881047 0.289902
v 1.781432 2.850583 0.414284
v 2.411248 2.220746 -0.054350
v 2.376807 2.317416 -0.125673
v 2.313884 2.417533 -0.200400
v 2.224219 2.515883 -0.274782
v 2.122560 2.618220 -0.352846
v 1.997904 2.708816 -0.423092
v 1.880728 2.821526 -0.509756
v 1.939479 1.327283 0.008686
v 2.066645 1.414104 0.008910
v 2.272330 1.433371 0.006448
v 2.392711 1.565299 0.006154
v 2.453947 1.727042 0.006753
v 2.466283 1.885257 0.007812
v 2.445173 2.022211 0.009004
v 1.868302 1.736143 0.791674
v 1.917149 1.617918 0.737000
v 1.962294 1.484171 0.664373
v 1.959887 1.399527 0.525191
v 1.927692 1.356050 0.371275
v 1.890810 1.319589 0.235185
v 1.848094 1.295057 0.114114
v 1.901934 1.852630 -0.784844
v 2.025283 1.893003 -0.676106
v 2.145472 1.933259 -0.567910
v 2.337744 1.959218 -0.519419
v 2.453395 2.005315 -0.394948
v 2.503170 2.055144 -0.247862
v 2.452648 2.099478 -0.100035
v 1.874176 1.218782 -0.108385
v 1.918109 1.228392 -0.246893
v 1.937736 1.286043 -0.390885
v 1.932251 1.379732 -0.524827
v 1.917185 1.476656 -0.656812
v 1.880783 1.590530 -0.761178
v 1.834778 1.702578 -0.844793
v 1.803857 1.939474 -0.884466
v 1.798858 2.077399 -0.805896
v 1.809093 2.212195 -0.776792
v 1.824792 2.361014 -0.773344
v 1.830024 2.520680 -0.759755
v 1.795155 2.638824 -0.674908
v 1.762787 2.755529 -0.608167
v 0.469265 2.971594 0.077173
v 0.665571 3.003255 0.153784
v 0.867310 3.083290 0.249818
v 1.088917 2.991436 0.305525
v 1.287825 2.934429 0.362989
v 1.472234 2.939998 0.444201
v 1.640510 2.929874 0.519786
v 1.597354 2.939572 -0.512658
v 1.437390 3.009166 -0.465395
v 1.249802 3.054738 -0.398234
v 1.046383 3.035723 -0.305056
v 0.845965 2.977490 -0.209433
v 0.651352 2.943901 -0.130224
v 0.470574 2.910924 -0.058613
v 0.592666 2.276121 0.928138
v 0.773402 2.225272 1.027243
v 0.979987 2.154520 1.059963
v 1.189870 2.078512 0.987052
v 1.379681 2.010915 0.942800
v 1.561131 1.938454 0.971416
v 1.708876 1.879917 0.917257
v 1.646814 2.831837 0.628348
v 1.491922 2.758972 0.669011
v 1.326323 2.713715 0.739983
v 1.142341 2.644324 0.788649
v 0.953213 2.555253 0.806252
v 0.745920 2.525267 0.932997
v 0.572662 2.421241 0.911088
v 0.630747 1.243089 0.507879
v 0.812808 1.177120 0.462620
v 1.012755 1.185280 0.376511
v 1.212386 1.083261 0.331108
v 1.409034 1.057029 0.252067
v 1.585559 1.070520 0.165340
v 1.721267 1.147928 0.079264
v 1.715033 1.746179 0.874358
v 1.585244 1.631006 0.928615
v 1.408232 1.553838 0.883862
v 1.216635 1.482169 0.829353
v 1.021499 1.468398 0.708734
v 0.818766 1.357939 0.705577
v 0.627944 1.300628 0.646226
v 0.528761 1.342495 -0.591035
v 0.704353 1.320947 -0.720394
v 0.910041 1.396088 -0.771546
v 1.115411 1.494985 -0.790032
v 1.304218 1.599986 -0.784728
v 1.480484 1.669245 -0.827997
v 1.629214 1.752697 -0.833189
v 1.729419 1.103449 -0.068329
v 1.570164 1.074095 -0.150375
v 1.375240 1.121340 -0.221262
v 1.170363 1.173827 -0.285636
v 0.955701 1.089800 -0.399485
v 0.737687 1.134778 -0.465937
v 0.536488 1.210855 -0.508236
v 0.424613 2.384267 -0.820568
v 0.619726 2.466664 -0.811671
v 0.815257 2.614617 -0.898507
v 1.034962 2.698291 -0.854011
v 1.239347 2.698464 -0.710996
v 1.420266 2.745829 -0.643087
v 1.585561 2.813815 -0.600362
v 1.643514 1.862777 -0.962308
v 1.461863 1.937305 -0.935153
v 1.269343 2.006160 -0.924329
v 1.062950 2.072824 -1.005894
v 0.845494 2.139555 -0.931903
v 0.623071 2.209639 -0.954911
v 0.433319 2.253471 -0.848128
v 0.267996 2.846978 0.110705
v 0.234772 2.810358 0.227765
v 0.222653 2.747742 0.347649
v 0.230145 2.676716 0.470544
v 0.255468 2.602209 0.597263
v 0.307571 2.502821 0.692244
v 0.359072 2.419351 0.802717
v 0.399392 2.195332 0.816235
v 0.355991 2.070116 0.838413
v 0.317172 1.922101 0.872742
v 0.300088 1.756186 0.876131
v 0.316451 1.602695 0.819151
v 0.367416 1.501173 0.699984
v 0.421079 1.411634 0.605242
v 0.425262 1.322638 0.399382
v 0.362120 1.259758 0.290556
v 0.300202 1.172133 0.165719
v 0.264449 1.131943 0.009588
v 0.266551 1.172728 -0.148228
v 0.282046 1.199636 -0.295403
v 0.321494 1.267417 -0.412624
v 0.299559 1.432468 -0.566836
v 0.235246 1.546195 -0.622097
v 0.170180 1.644254 -0.715279
v 0.144479 1.789085 -0.742981
v 0.128080 1.919280 -0.819497
v 0.126770 2.061898 -0.923208
v 0.175682 2.203015 -0.902815
v 0.166134 2.429847 -0.826608
v 0.124656 2.515750 -0.709581
v 0.111619 2.575325 -0.563904
v 0.098473 2.684237 -0.468671
v 0.092156 2.845356 -0.383190
v 0.143391 2.904382 -0.241622
v 0.234248 2.867766 -0.101554
v -1.156278 2.009453 0.075600
v -0.997088 2.061392 0.268518
v -0.759830 2.114993 0.393961
v -0.476371 2.155540 0.464307
v -0.239823 2.212765 0.616088
v -0.011734 2.267222 0.756989
v 0.250447 2.275455 0.737990
v 0.092617 2.842822 0.006838
v -0.174613 2.831902 0.011298
v -0.374052 2.596259 0.002209
v -0.658983 2.508801 0.005916
v -0.955884 2.430955 0.021247
v -1.158768 2.240568 0.014626
v -1.276326 2.050963 -0.034752
v -1.143543 1.912283 0.031535
v -0.953258 1.799642 0.134307
v -0.721031 1.691259 0.224221
v -0.493253 1.545567 0.343277
v -0.217670 1.478430 0.398289
v 0.059991 1.463312 0.415252
v 0.286522 1.408170 0.463314
v -1.302244 1.878494 -0.064326
v -1.146356 1.737387 -0.147237
v -0.918497 1.614474 -0.244185
v -0.633618 1.551339 -0.311792
v -0.339954 1.508595 -0.359285
v -0.068243 1.463163 -0.402402
v 0.164252 1.392683 -0.458855
v -1.566196 1.992410 -0.107312
v -1.309012 2.048600 -0.244638
v -1.036358 2.095371 -0.350872
v -0.738475 2.135782 -0.434074
v -0.484807 2.201328 -0.600649
v -0.224285 2.251557 -0.719185
v 0.005428 2.303869 -0.848375
v -1.279875 2.078064 -0.103598
v -1.067030 2.263246 -0.115696
v -1.112238 2.158028 -0.217285
v -0.847767 2.496581 -0.129619
v -0.917144 2.371437 -0.268959
v -0.850840 2.213313 -0.334187
v -0.552997 2.619533 -0.125817
v -0.660429 2.555028 -0.280427
v -0.684880 2.448867 -0.429364
v -0.631247 2.336379 -0.565021
v -0.257619 2.707908 -0.117310
v -0.334746 2.608473 -0.241282
v -0.422848 2.600839 -0.420424
v -0.413653 2.496699 -0.564201
v -0.346831 2.380477 -0.681847
v -0.023802 2.870495 -0.117868
v -0.096387 2.794491 -0.252758
v -0.115379 2.641208 -0.354253
v -0.130192 2.557244 -0.477104
v -0.136601 2.518613 -0.660057
v -0.077688 2.412471 -0.771186
v -1.338793 1.869531 -0.220327
v -1.139547 1.943527 -0.345041
v -1.089024 1.762314 -0.313727
v -0.865278 2.002928 -0.449519
v -0.880299 1.846208 -0.420112
v -0.809714 1.658297 -0.401838
v -0.574311 2.055424 -0.554583
v -0.605670 1.916097 -0.494605
v -0.574826 1.773429 -0.460348
v -0.491497 1.606818 -0.439595
v -0.306306 2.108407 -0.694087
v -0.341522 1.963712 -0.622016
v -0.341716 1.821676 -0.581381
v -0.284938 1.687038 -0.527797
v -0.186524 1.566114 -0.466698
v -0.063565 2.163091 -0.842833
v -0.089782 2.012363 -0.754322
v -0.095677 1.873684 -0.689491
v -0.084957 1.717975 -0.678002
v -0.021214 1.589284 -0.608597
v 0.073400 1.497451 -0.518525
v -1.070961 1.822200 -0.011626
v -0.926590 1.662649 -0.070502
v -0.833730 1.718362 0.061818
v -0.670738 1.596751 -0.144682
v -0.661630 1.595352 0.000526
v -0.584619 1.592145 0.151000
v -0.427612 1.452458 -0.233183
v -0.432262 1.486553 -0.072956
v -0.399492 1.480644 0.080343
v -0.339822 1.437955 0.258391
v -0.138252 1.425941 -0.283924
v -0.187448 1.372902 -0.150270
v -0.179382 1.373729 0.005092
v -0.156148 1.317140 0.179152
v -0.084687 1.319216 0.350395
v 0.103335 1.336957 -0.353154
v 0.068038 1.314599 -0.216612
v 0.049397 1.271879 -0.071542
v 0.047201 1.198224 0.096296
v 0.118686 1.281202 0.240614
v 0.209234 1.372721 0.348845
v -1.040109 1.909749 0.219327
v -0.850746 1.785055 0.341495
v -0.852549 1.955304 0.386562
v -0.601732 1.674888 0.426615
v -0.626312 1.850859 0.457407
v -0.552210 2.017585 0.415850
v -0.288667 1.639615 0.425100
v -0.337926 1.782779 0.465520
v -0.348030 1.922651 0.519183
v -0.328896 2.068820 0.608008
v -0.025663 1.561375 0.486679
v -0.084016 1.690170 0.543223
v -0.121359 1.820531 0.620229
v -0.145625 1.960710 0.749589
v -0.088513 2.123370 0.757208
v 0.219558 1.500570 0.531758
v 0.149453 1.587843 0.633734
v 0.091317 1.697404 0.755592
v 0.075743 1.852100 0.830061
v 0.109014 2.019335 0.832401
v 0.160065 2.168357 0.829119
v -1.119963 2.141382 0.128518
v -0.922595 2.225896 0.307128
v -0.963533 2.299342 0.141693
v -0.601191 2.232438 0.342512
v -0.697971 2.326625 0.241550
v -0.738172 2.454286 0.142427
v -0.374624 2.319221 0.537576
v -0.472382 2.428103 0.423393
v -0.481283 2.479038 0.252662
v -0.447252 2.535336 0.117733
v -0.132685 2.385893 0.697688
v -0.223112 2.501213 0.584116
v -0.277657 2.611537 0.447871
v -0.285915 2.708835 0.299702
v -0.245624 2.779354 0.149164
v 0.157933 2.374775 0.688974
v 0.069614 2.489501 0.624582
v -0.009112 2.628342 0.551399
v -0.029442 2.714320 0.408439
v -0.003587 2.753174 0.252791
v 0.042280 2.788307 0.120247
v 0.401228 2.940688 -0.186226
v 0.612089 2.926919 -0.260846
v 0.340249 2.942948 -0.340663
v 0.829387 2.917483 -0.336679
v 0.566048 2.953042 -0.436777
v 0.305829 2.881085 -0.495659
v 1.042538 2.934362 -0.426888
v 0.810748 2.891844 -0.495314
v 0.547827 2.883054 -0.596295
v 0.317845 2.725480 -0.588985
v 1.249080 2.944318 -0.520259
v 1.039555 2.830567 -0.543012
v 0.799747 2.841975 -0.664702
v 0.553466 2.761758 -0.720975
v 0.348300 2.582026 -0.656989
v 1.437439 2.911943 -0.589473
v 1.243176 2.788091 -0.596036
v 1.035141 2.789798 -0.715437
v 0.802059 2.742106 -0.803915
v 0.585501 2.595775 -0.767229
v 0.384371 2.474119 -0.734588
v 0.387868 2.135125 -0.901378
v 0.598802 2.068147 -1.007283
v 0.347141 1.985365 -0.973635
v 0.842927 1.996500 -0.956342
v 0.590214 1.902855 -1.010735
v 0.358742 1.838538 -0.872963
v 1.073670 1.931194 -0.913169
v 0.844449 1.824314 -1.005511
v 0.600187 1.735135 -0.964828
v 0.374660 1.683845 -0.833367
v 1.285186 1.864260 -0.902892
v 1.087095 1.769198 -0.929132
v 0.859571 1.657373 -0.958849
v 0.625101 1.576771 -0.896398
v 0.402006 1.512195 -0.812805
v 1.469144 1.808119 -0.861106
v 1.298674 1.719223 -0.868998
v 1.101773 1.612085 -0.890228
v 0.882105 1.506830 -0.882119
v 0.663091 1.444738 -0.802440
v 0.472049 1.446452 -0.663115
v 0.505738 1.141183 -0.389861
v 0.725959 1.079526 -0.326184
v 0.487359 1.093310 -0.242500
v 0.958309 1.043109 -0.247943
v 0.723897 1.050012 -0.163909
v 0.494781 1.119894 -0.073560
v 1.181320 1.155966 -0.142071
v 0.968311 1.086955 -0.074130
v 0.743549 1.134219 0.007227
v 0.519032 1.166066 0.084912
v 1.394278 1.064177 -0.073324
v 1.192724 1.127914 0.007726
v 0.981647 1.129007 0.085859
v 0.765913 1.177722 0.158113
v 0.557210 1.224828 0.224859
v 1.576754 1.086495 0.007371
v 1.407047 1.032649 0.090817
v 1.206356 1.033780 0.177296
v 0.997382 1.171493 0.232211
v 0.787294 1.170160 0.312649
v 0.599490 1.267153 0.352727
v 0.588067 1.403643 0.732498
v 0.801329 1.503812 0.747824
v 0.563496 1.551886 0.779898
v 1.009580 1.578213 0.792529
v 0.774027 1.606295 0.869742
v 0.536319 1.682302 0.869730
v 1.212070 1.631808 0.876856
v 0.998508 1.704358 0.877648
v 0.773382 1.781167 0.864551
v 0.538390 1.847736 0.883046
v 1.411526 1.681703 0.987607
v 1.207485 1.750434 1.018866
v 0.987765 1.841490 0.976310
v 0.770243 1.928766 0.909453
v 0.556877 2.002776 0.868781
v 1.575477 1.788679 0.951994
v 1.399455 1.851707 0.992429
v 1.199167 1.919029 1.042282
v 0.979911 1.996348 1.057005
v 0.769231 2.075390 0.973213
v 0.570635 2.142437 0.906619
v 0.515078 2.539605 0.852312
v 0.706697 2.648198 0.850097
v 0.477130 2.631185 0.724612
v 0.930027 2.664829 0.720740
v 0.673514 2.767841 0.738789
v 0.437109 2.747279 0.619192
v 1.129927 2.740445 0.677130
v 0.906948 2.784769 0.626734
v 0.647266 2.886947 0.613327
v 0.414266 2.852115 0.493028
v 1.316991 2.795635 0.615677
v 1.116384 2.831548 0.556674
v 0.886431 2.909301 0.519182
v 0.636958 2.973810 0.462543
v 0.423795 2.894668 0.336717
v 1.488634 2.872676 0.574456
v 1.304967 2.886327 0.498857
v 1.101419 2.938510 0.443109
v 0.876240 2.988069 0.379582
v 0.643420 3.016240 0.303614
v 0.438870 2.949824 0.203187
v 0.617544 2.340189 -0.875689
v 0.822722 2.434272 -0.888844
v 0.833405 2.277638 -0.889183
v 1.038628 2.558188 -0.937004
v 1.045065 2.391319 -0.973976
v 1.053538 2.220926 -0.954124
v 1.254003 2.605824 -0.828973
v 1.265722 2.471432 -0.919422
v 1.276810 2.323917 -1.017991
v 1.274260 2.150183 -0.975327
v 1.439558 2.628944 -0.708054
v 1.465340 2.527390 -0.821553
v 1.489506 2.403342 -0.949691
v 1.496127 2.240723 -1.011155
v 1.485052 2.075635 -0.999414
v 1.601750 2.669519 -0.630913
v 1.629562 2.559801 -0.706269
v 1.651075 2.434662 -0.779860
v 1.660426 2.293823 -0.835975
v 1.667246 2.150606 -0.905082
v 1.667960 2.000939 -0.971941
v 0.716566 1.220107 -0.598874
v 0.920511 1.281015 -0.662640
v 0.936556 1.185788 -0.531053
v 1.128668 1.403301 -0.669545
v 1.144342 1.285973 -0.566019
v 1.158814 1.202510 -0.433042
v 1.325574 1.492165 -0.698705
v 1.344292 1.387314 -0.593230
v 1.359028 1.289467 -0.474363
v 1.365855 1.223727 -0.338987
v 1.524161 1.527522 -0.797913
v 1.539453 1.446462 -0.655742
v 1.560200 1.335448 -0.543367
v 1.575248 1.222003 -0.423246
v 1.575443 1.143842 -0.284674
v 1.685528 1.624583 -0.809845
v 1.730853 1.494430 -0.738690
v 1.762774 1.369903 -0.631884
v 1.774712 1.269545 -0.493896
v 1.772821 1.186885 -0.348726
v 1.755579 1.134138 -0.202947
v 0.807023 1.222537 0.617156
v 1.007936 1.166963 0.560595
v 1.014237 1.334809 0.636048
v 1.217800 1.126121 0.488529
v 1.216578 1.290631 0.580454
v 1.216672 1.400867 0.691411
v 1.421977 1.116149 0.399266
v 1.422556 1.239818 0.522077
v 1.415252 1.382581 0.616185
v 1.412116 1.474639 0.740160
v 1.598869 1.160027 0.294983
v 1.595786 1.295699 0.403022
v 1.602218 1.375239 0.532083
v 1.603727 1.453506 0.667662
v 1.609555 1.509407 0.843779
v 1.726737 1.263437 0.189443
v 1.757167 1.300675 0.319063
v 1.778783 1.354172 0.457986
v 1.815169 1.370971 0.646751
v 1.800463 1.483767 0.769518
v 1.746521 1.642360 0.799352
v 0.755165 2.379117 0.993464
v 0.968565 2.300907 0.976323
v 0.956755 2.445264 0.916246
v 1.179673 2.227307 0.974244
v 1.168284 2.365590 0.893366
v 1.155482 2.509410 0.847094
v 1.381906 2.152922 0.962640
v 1.373390 2.297994 0.906468
v 1.361558 2.442991 0.857327
v 1.345967 2.586613 0.807326
v 1.559829 2.079980 0.909101
v 1.564466 2.224272 0.897231
v 1.565183 2.382804 0.892148
v 1.547193 2.524644 0.825425
v 1.524572 2.660922 0.761908
v 1.720153 2.012537 0.887267
v 1.739451 2.152149 0.894066
v 1.770318 2.322086 0.950163
v 1.754914 2.477991 0.885665
v 1.728110 2.620664 0.809509
v 1.694567 2.749765 0.731929
v 0.654495 2.975813 0.007135
v 0.852810 3.079300 0.088186
v 0.848007 3.022239 -0.068295
v 1.073978 3.098716 0.174069
v 1.061452 3.140574 0.007726
v 1.052094 3.117469 -0.161778
v 1.286536 2.977158 0.231949
v 1.282710 3.026877 0.086715
v 1.274288 3.045874 -0.072479
v 1.261800 3.031571 -0.229744
v 1.491718 3.040501 0.332199
v 1.485171 3.001379 0.164081
v 1.477437 2.987013 0.008389
v 1.465954 2.982002 -0.144532
v 1.460791 3.046047 -0.319872
v 1.657970 2.958798 0.386095
v 1.668386 2.976986 0.239789
v 1.659072 2.944023 0.083185
v 1.651990 2.943790 -0.065864
v 1.634399 2.928481 -0.211147
v 1.629950 2.981033 -0.381518
v 1.942305 2.733119 -0.604535
v 2.081651 2.631961 -0.526914
v 1.986584 2.605248 -0.686208
v 2.193916 2.514859 -0.432965
v 2.131322 2.500071 -0.608562
v 1.993877 2.439561 -0.724287
v 2.284004 2.399999 -0.340133
v 2.275525 2.395570 -0.536114
v 2.158940 2.345419 -0.679358
v 1.977998 2.273266 -0.737063
v 2.386276 2.301224 -0.266312
v 2.374176 2.276220 -0.436943
v 2.295694 2.233035 -0.601650
v 2.083731 2.167395 -0.633891
v 1.938895 2.120465 -0.720565
v 2.413705 2.192624 -0.174476
v 2.410806 2.158503 -0.321829
v 2.388042 2.115606 -0.498122
v 2.240239 2.066228 -0.604770
v 2.051308 2.025861 -0.647377
v 1.929947 1.982660 -0.766416
v 1.940177 1.764884 -0.684910
v 2.066328 1.804721 -0.574776
v 2.007022 1.643227 -0.624632
v 2.229056 1.826445 -0.499272
v 2.111436 1.704657 -0.478075
v 2.039174 1.537195 -0.512100
v 2.380473 1.858485 -0.397691
v 2.243673 1.737744 -0.368701
v 2.147824 1.597303 -0.371543
v 2.042903 1.451276 -0.377002
v 2.490351 1.904490 -0.267243
v 2.423637 1.748298 -0.273770
v 2.301922 1.611927 -0.263952
v 2.127512 1.530964 -0.233038
v 2.066407 1.326469 -0.261161
v 2.470876 1.970345 -0.112318
v 2.503023 1.804370 -0.131468
v 2.423382 1.649257 -0.133243
v 2.307183 1.508250 -0.130375
v 2.108618 1.459588 -0.108893
v 2.015827 1.300876 -0.115277
v 1.984006 1.366284 0.121192
v 2.159418 1.410043 0.135039
v 2.030298 1.404622 0.249017
v 2.331410 1.495164 0.146460
v 2.222472 1.452341 0.283695
v 2.092519 1.425103 0.408732
v 2.430195 1.650147 0.145559
v 2.338639 1.598443 0.286189
v 2.237393 1.543506 0.429322
v 2.113863 1.498569 0.564226
v 2.451404 1.825118 0.135129
v 2.432292 1.752053 0.284233
v 2.309206 1.715535 0.409942
v 2.206171 1.663205 0.548542
v 2.060624 1.638271 0.649768
v 2.434380 1.977475 0.122498
v 2.393592 1.930764 0.245600
v 2.315111 1.887432 0.366198
v 2.229016 1.841420 0.490881
v 2.116772 1.801868 0.602471
v 1.996925 1.764742 0.707115
v 1.890338 2.792096 -0.345363
v 1.925007 2.817207 -0.210927
v 2.033476 2.722477 -0.284791
v 1.947508 2.832447 -0.065798
v 2.065189 2.739617 -0.141559
v 2.160945 2.633231 -0.213848
v 1.974895 2.871375 0.086673
v 2.089050 2.757848 0.008893
v 2.191064 2.648233 -0.067115
v 2.265101 2.531491 -0.137865
v 1.966695 2.861726 0.240687
v 2.105095 2.778522 0.167575
v 2.290246 2.740050 0.094855
v 2.359385 2.591469 0.007140
v 2.353555 2.430430 -0.063523
v 1.967082 2.880566 0.404006
v 2.125992 2.817574 0.343131
v 2.268195 2.723739 0.265623
v 2.385918 2.610662 0.179298
v 2.432924 2.467765 0.087663
v 2.413536 2.326587 0.008966
v 1.981098 1.987195 0.768932
v 2.140967 2.023083 0.718844
v 2.024985 2.125427 0.786265
v 2.255683 2.068653 0.598792
v 2.131539 2.169861 0.654955
v 2.035268 2.276629 0.756636
v 2.348491 2.114481 0.467213
v 2.274519 2.222809 0.565752
v 2.167093 2.332005 0.652548
v 2.062748 2.453708 0.762693
v 2.401751 2.156865 0.326120
v 2.366139 2.269004 0.431477
v 2.305040 2.395535 0.546741
v 2.189250 2.514211 0.640253
v 2.034601 2.606352 0.697678
v 2.412676 2.191561 0.189939
v 2.418140 2.306563 0.288712
v 2.395142 2.443166 0.403652
v 2.263703 2.545167 0.478404
v 2.113665 2.629143 0.536943
v 1.986056 2.734172 0.616646
vn 0.9810 0.1719 0.0897
vn 0.3464 0.8601 0.3743
vn 0.5627 -0.0551 0.8249
vn 0.6592 -0.6925 0.2931
vn 0.3550 -0.2889 -0.8891
vn 0.3120 0.7737 -0.5514
vn -0.4535 0.0726 0.8883
vn -0.4605 -0.8134 0.3553
vn -0.3693 -0.6386 -0.6751
vn 0.0519 0.3007 -0.9523
vn -0.2901 0.9568 0.0192
vn -0.3998 -0.0634 0.9144
vn 0.5401 -0.1137 0.8339
vn 0.5594 -0.3258 0.7622
vn 0.6515 -0.3927 0.6491
vn 0.8077 -0.3302 0.4884
vn 0.9328 -0.2077 0.2946
vn 0.9783 -0.0429 0.2029
vn 0.9852 0.0719 0.1554
vn 0.9953 -0.0621 -0.0746
vn 0.9982 -0.0599 -0.0102
vn 0.9294 0.2910 0.2269
vn 0.7323 0.5379 0.4176
vn 0.6266 0.5666 0.5351
vn 0.5501 0.6403 0.5361
vn 0.2551 0.8559 0.4498
vn 0.2848 0.7564 0.5889
vn 0.3003 0.6260 0.7196
vn 0.3430 0.4747 0.8105
vn 0.4850 0.0733 0.8715
vn 0.4522 -0.1372 0.8813
vn 0.3645 -0.1341 0.9215
vn 0.4860 -0.0819 0.8701
vn 0.5124 0.8569 -0.0556
vn 0.4561 0.8835 -0.1065
vn 0.3517 0.9235 -0.1529
vn 0.2872 0.9461 -0.1500
vn 0.2889 0.9569 0.0305
vn 0.2968 0.9292 0.2204
vn 0.2993 0.9303 0.2120
vn 0.9712 0.2266 -0.0735
vn 0.9325 0.3316 -0.1430
vn 0.8257 0.5153 -0.2294
vn 0.7946 0.5587 -0.2375
vn 0.7103 0.6775 -0.1908
vn 0.6269 0.7711 -0.1116
vn 0.4935 0.8339 -0.2470
vn 0.5669 -0.7699 0.2929
vn 0.4304 -0.9023 -0.0258
vn 0.4268 -0.8936 -0.1392
vn 0.8363 -0.5453 -0.0576
vn 0.9655 -0.2459 0.0856
vn 0.9833 0.0700 0.1680
vn 0.9834 0.1129 0.1418
vn 0.4960 -0.2156 0.8411
vn 0.4728 -0.1973 0.8588
vn 0.5089 -0.5250 0.6821
vn 0.3569 -0.8866 0.2941
vn 0.3131 -0.9351 0.1657
vn 0.3880 -0.9150 0.1104
vn 0.5216 -0.8075 0.2755
vn 0.7377 -0.1302 -0.6624
vn 0.6931 -0.2004 -0.6924
vn 0.4366 -0.3186 -0.8414
vn 0.5673 -0.3312 -0.7539
vn 0.8821 -0.0295 -0.4702
vn 0.9670 0.2427 -0.0772
vn 0.9592 0.2527 0.1266
vn 0.5883 -0.7938 0.1542
vn 0.5019 -0.8591 -0.1004
vn 0.5645 -0.7088 -0.4229
vn 0.6129 -0.6239 -0.4848
vn 0.5706 -0.5277 -0.6293
vn 0.5322 -0.3595 -0.7665
vn 0.4424 -0.3278 -0.8347
vn 0.6041 0.1605 -0.7806
vn 0.5714 0.2705 -0.7748
vn 0.4277 0.0727 -0.9010
vn 0.2272 0.0826 -0.9703
vn 0.0867 0.3435 -0.9352
vn -0.0256 0.5404 -0.8410
vn 0.0990 0.4841 -0.8694
vn -0.3131 0.9386 -0.1451
vn -0.2839 0.9537 -0.0993
vn -0.0881 0.9474 0.3076
vn 0.1844 0.8621 0.4719
vn -0.0637 0.9304 0.3611
vn -0.1195 0.8549 0.5048
vn 0.1852 0.8912 0.4141
vn 0.3047 0.7829 -0.5425
vn 0.1128 0.8753 -0.4702
vn -0.1119 0.9397 -0.3230
vn -0.2355 0.8575 -0.4574
vn -0.3324 0.8881 -0.3176
vn -0.1928 0.9727 -0.1289
vn -0.2255 0.9732 -0.0448
vn -0.3724 -0.0462 0.9269
vn -0.2295 0.0116 0.9733
vn 0.0435 0.1687 0.9847
vn 0.2451 0.1516 0.9576
vn 0.1852 0.1526 0.9708
vn 0.1928 0.1745 0.9656
vn 0.4518 -0.0258 0.8918
vn 0.0596 0.7481 0.6609
vn -0.0674 0.6945 0.7163
vn 0.0055 0.6850 0.7286
vn -0.0781 0.5728 0.8160
vn 0.1144 0.6311 0.7672
vn 0.0206 0.4944 0.8690
vn -0.3058 0.2581 0.9165
vn -0.3324 -0.9316 0.1468
vn -0.1879 -0.9761 0.1091
vn -0.1731 -0.9839 0.0455
vn -0.2081 -0.9365 0.2823
vn 0.1564 -0.9433 0.2928
vn 0.4391 -0.8703 0.2233
vn 0.5405 -0.7580 0.3650
vn 0.4692 -0.2911 0.8337
vn 0.3430 -0.3723 0.8624
vn -0.0421 -0.7004 0.7125
vn -0.1201 -0.6574 0.7439
vn -0.0646 -0.5662 0.8218
vn 0.0928 -0.4470 0.8897
vn -0.2723 -0.7516 0.6008
vn -0.4337 -0.6177 -0.6560
vn -0.2182 -0.6829 -0.6971
vn 0.1590 -0.6736 -0.7218
vn 0.2938 -0.6620 -0.6895
vn 0.1245 -0.5584 -0.8201
vn 0.0314 -0.2616 -0.9647
vn -0.0486 -0.4600 -0.8866
vn 0.4095 -0.9091 0.0771
vn 0.0840 -0.9716 -0.2212
vn -0.1356 -0.8791 -0.4570
vn 0.2502 -0.9370 -0.2436
vn 0.1960 -0.8865 -0.4192
vn -0.0919 -0.8738 -0.4776
vn -0.3526 -0.6727 -0.6505
vn -0.0382 0.4666 -0.8836
vn -0.3140 0.3083 -0.8979
vn -0.2718 0.2948 -0.9161
vn 0.1676 0.6805 -0.7133
vn 0.2692 0.7465 -0.6085
vn 0.0938 0.4423 -0.8919
vn 0.1235 0.3726 -0.9197
vn 0.0343 -0.3883 -0.9209
vn -0.1361 -0.3762 -0.9165
vn -0.0135 -0.2988 -0.9542
vn -0.0110 -0.1109 -0.9938
vn -0.0175 0.2506 -0.9679
vn -0.0729 0.4249 -0.9023
vn -0.0938 0.3360 -0.9372
vn -0.3637 0.9228 0.1270
vn -0.3761 0.8824 0.2826
vn -0.3422 0.8497 0.4012
vn -0.3164 0.7929 0.5207
vn -0.3393 0.6340 0.6949
vn -0.4540 0.5150 0.7271
vn -0.5771 0.4165 0.7025
vn -0.3463 -0.0085 0.9381
vn -0.1084 0.1644 0.9804
vn -0.0926 0.1172 0.9888
vn -0.1870 -0.1924 0.9633
vn -0.2592 -0.6102 0.7487
vn -0.3562 -0.7490 0.5587
vn -0.4854 -0.6987 0.5255
vn -0.3280 -0.8884 0.3212
vn -0.1417 -0.7976 0.5864
vn -0.0748 -0.8941 0.4415
vn -0.1976 -0.9803 -0.0049
vn -0.3919 -0.8999 -0.1915
vn -0.4433 -0.8188 -0.3648
vn -0.3891 -0.6633 -0.6393
vn -0.3295 -0.6578 -0.6772
vn -0.3669 -0.7151 -0.5950
vn -0.3680 -0.4891 -0.7908
vn -0.3431 -0.3369 -0.8768
vn -0.3838 -0.5113 -0.7689
vn -0.3076 -0.1545 -0.9389
vn -0.0623 0.1926 -0.9793
vn -0.0553 0.6234 -0.7799
vn -0.0929 0.8283 -0.5525
vn -0.2724 0.7680 -0.5797
vn -0.4503 0.5124 -0.7312
vn -0.4599 0.7035 -0.5418
vn -0.2442 0.9696 -0.0174
vn -0.1315 0.9623 0.2382
vn -0.6970 -0.1547 0.7002
vn -0.6596 0.0539 0.7497
vn -0.2425 0.2488 0.9377
vn -0.5598 0.1284 0.8186
vn -0.5524 0.1195 0.8250
vn -0.2238 0.3286 0.9176
vn -0.3022 0.3381 0.8913
vn -0.0841 0.9589 0.2710
vn -0.4058 0.9138 0.0159
vn -0.5367 0.8215 0.1923
vn -0.2752 0.9037 0.3278
vn -0.5639 0.7918 0.2345
vn -0.7449 0.6355 0.2029
vn -0.6063 0.5254 0.5970
vn -0.5339 -0.5504 0.6418
vn -0.5419 -0.8006 0.2558
vn -0.5055 -0.8416 0.1903
vn -0.4165 -0.7659 0.4899
vn -0.3087 -0.4919 0.8141
vn -0.1374 -0.6255 0.7680
vn -0.4044 -0.7841 0.4708
vn -0.4427 -0.7037 0.5556
vn -0.4975 -0.8474 0.1854
vn -0.3639 -0.9235 -0.1217
vn -0.2906 -0.9202 -0.2625
vn -0.1847 -0.8069 -0.5610
vn -0.3272 -0.7605 -0.5609
vn -0.3418 -0.6914 -0.6365
vn -0.9912 0.0853 0.1015
vn -0.5136 0.5517 -0.6571
vn -0.3850 0.5001 -0.7756
vn -0.5045 0.2004 -0.8398
vn -0.4439 -0.0739 -0.8930
vn -0.4471 0.0759 -0.8912
vn -0.3164 0.2616 -0.9118
vn -0.5335 0.8455 0.0214
vn -0.6788 0.6641 -0.3133
vn -0.5260 0.6954 -0.4897
vn -0.5090 0.8578 -0.0717
vn -0.6456 0.4980 -0.5790
vn -0.5118 0.3199 -0.7974
vn -0.2700 0.9582 0.0948
vn -0.3937 0.8680 -0.3027
vn -0.5723 0.5755 -0.5842
vn -0.5604 0.1715 -0.8103
vn -0.5736 0.7995 -0.1786
vn -0.2759 0.9212 -0.2743
vn -0.2017 0.9173 -0.3435
vn -0.2905 0.7132 -0.6379
vn -0.3723 0.2558 -0.8922
vn -0.2696 0.9627 -0.0215
vn -0.5347 0.7369 -0.4136
vn -0.3673 0.7164 -0.5932
vn -0.1654 0.8841 -0.4371
vn -0.2019 0.8313 -0.5179
vn -0.3114 0.4659 -0.8282
vn -0.6199 -0.5976 -0.5085
vn -0.4165 -0.0310 -0.9086
vn -0.4806 -0.5679 -0.6682
vn -0.3157 0.1004 -0.9435
vn -0.2844 -0.1920 -0.9393
vn -0.2946 -0.5499 -0.7816
vn -0.4364 -0.0928 -0.8949
vn -0.2952 -0.2827 -0.9126
vn -0.2518 -0.2616 -0.9318
vn -0.2191 -0.5671 -0.7940
vn -0.4393 -0.1339 -0.8883
vn -0.3733 -0.3030 -0.8768
vn -0.3814 -0.3395 -0.8598
vn -0.3400 -0.5159 -0.7863
vn -0.2851 -0.6941 -0.6610
vn -0.4597 -0.0468 -0.8869
vn -0.4215 -0.3954 -0.8161
vn -0.3585 -0.2647 -0.8952
vn -0.3515 -0.3500 -0.8683
vn -0.3032 -0.6946 -0.6524
vn -0.2931 -0.7193 -0.6298
vn -0.4639 -0.6968 0.5470
vn -0.3664 -0.8318 0.4169
vn -0.4521 -0.8140 0.3647
vn -0.3117 -0.9423 0.1224
vn -0.4130 -0.8961 0.1625
vn -0.5136 -0.8475 0.1343
vn -0.3242 -0.9310 -0.1678
vn -0.4175 -0.9032 0.0999
vn -0.4765 -0.8791 0.0114
vn -0.4887 -0.8394 0.2379
vn -0.2700 -0.8633 -0.4264
vn -0.3268 -0.9277 -0.1804
vn -0.4624 -0.8806 -0.1034
vn -0.4460 -0.8939 0.0459
vn -0.1887 -0.7849 0.5902
vn -0.4252 -0.7848 -0.4509
vn -0.4217 -0.8588 -0.2909
vn -0.4228 -0.8578 -0.2922
vn -0.3813 -0.9188 0.1021
vn -0.1214 -0.8201 0.5592
vn -0.1721 -0.7606 0.6260
vn -0.7386 -0.3739 0.5609
vn -0.5545 -0.5869 0.5899
vn -0.4486 -0.0014 0.8937
vn -0.3545 -0.5379 0.7648
vn -0.2467 -0.0100 0.9691
vn -0.3194 0.0523 0.9462
vn -0.2440 -0.3551 0.9024
vn -0.2492 -0.3486 0.9036
vn -0.4702 -0.3235 0.8211
vn -0.6292 0.0106 0.7772
vn -0.3039 -0.5948 0.7442
vn -0.4747 -0.5406 0.6945
vn -0.5451 -0.5428 0.6389
vn -0.5340 -0.2428 0.8099
vn -0.4408 0.1841 0.8785
vn -0.3851 -0.7621 0.5205
vn -0.4309 -0.7649 0.4787
vn -0.5118 -0.5674 0.6450
vn -0.3968 -0.2249 0.8899
vn -0.2136 0.0805 0.9736
vn -0.0893 0.3289 0.9401
vn -0.7253 0.2440 0.6438
vn -0.4499 0.4970 0.7420
vn -0.5024 0.6420 0.5792
vn -0.4419 0.4214 0.7919
vn -0.3650 0.5905 0.7198
vn -0.3288 0.7717 0.5443
vn -0.5929 0.1141 0.7972
vn -0.6759 0.4696 0.5680
vn -0.5734 0.7570 0.3133
vn -0.5177 0.8376 0.1741
vn -0.3147 0.3278 0.8908
vn -0.4060 0.5060 0.7610
vn -0.4891 0.6791 0.5474
vn -0.5106 0.7899 0.3396
vn -0.4638 0.8711 0.1612
vn -0.1756 0.3951 0.9017
vn -0.1077 0.4746 0.8736
vn -0.1308 0.6838 0.7178
vn -0.1212 0.9038 0.4104
vn -0.0981 0.9596 0.2639
vn -0.1155 0.9462 0.3021
vn -0.0979 0.9820 0.1612
vn -0.0094 0.9994 -0.0318
vn -0.1573 0.9796 -0.1247
vn -0.1189 0.9539 -0.2755
vn 0.0146 0.9852 -0.1707
vn -0.3522 0.7231 -0.5942
vn -0.2358 0.7739 -0.5878
vn 0.0954 0.9508 -0.2946
vn -0.1516 0.8115 -0.5644
vn -0.4403 0.4197 -0.7937
vn -0.2025 0.6341 -0.7462
vn 0.0164 0.8592 -0.5113
vn 0.0464 0.8905 -0.4526
vn -0.3272 0.4861 -0.8104
vn -0.3091 0.4665 -0.8287
vn 0.0184 0.5654 -0.8246
vn -0.0075 0.6557 -0.7550
vn 0.1894 0.8787 -0.4381
vn -0.1560 0.6720 -0.7239
vn -0.3927 0.2469 -0.8859
vn -0.1193 0.6030 -0.7887
vn -0.1214 0.4135 -0.9024
vn -0.0247 0.2177 -0.9757
vn -0.2785 -0.0970 -0.9555
vn 0.0940 0.1176 -0.9886
vn -0.1190 -0.1341 -0.9838
vn -0.3998 -0.4063 -0.8217
vn 0.1482 -0.1678 -0.9746
vn 0.1322 -0.0175 -0.9911
vn -0.2541 -0.3304 -0.9090
vn -0.4235 -0.2418 -0.8730
vn 0.0662 -0.1891 -0.9797
vn 0.2230 -0.0880 -0.9708
vn 0.0669 -0.3487 -0.9349
vn -0.1843 -0.4721 -0.8621
vn -0.3931 -0.6305 -0.6693
vn -0.0042 -0.4090 -0.9125
vn 0.1986 -0.3496 -0.9156
vn 0.2703 -0.4304 -0.8612
vn 0.0704 -0.5838 -0.8088
vn -0.1954 -0.6587 -0.7266
vn -0.3777 -0.7731 -0.5095
vn -0.2956 -0.8459 -0.4439
vn -0.1104 -0.9523 -0.2844
vn -0.2694 -0.9567 -0.1104
vn 0.2116 -0.9751 -0.0661
vn -0.0885 -0.9851 0.1475
vn -0.1223 -0.9718 0.2018
vn 0.0463 -0.9897 -0.1356
vn 0.1089 -0.9683 0.2246
vn -0.0684 -0.9354 0.3469
vn 0.0154 -0.9487 0.3159
vn -0.1371 -0.9695 -0.2030
vn -0.1351 -0.9609 -0.2418
vn -0.1573 -0.9688 0.1914
vn -0.1061 -0.9788 0.1750
vn -0.0914 -0.9290 0.3586
vn 0.2340 -0.9722 0.0008
vn 0.0212 -0.9957 -0.0902
vn -0.2293 -0.9733 -0.0115
vn -0.2471 -0.9503 0.1892
vn -0.1698 -0.9830 0.0703
vn -0.2939 -0.9362 0.1929
vn -0.1998 -0.5270 0.8260
vn 0.0653 -0.5207 0.8512
vn -0.1002 -0.5296 0.8423
vn -0.0884 -0.5795 0.8102
vn 0.0009 -0.4418 0.8971
vn -0.0296 -0.3035 0.9524
vn -0.2287 -0.5552 0.7996
vn -0.1523 -0.5387 0.8286
vn -0.1086 -0.1813 0.9774
vn -0.0234 -0.0192 0.9995
vn 0.0568 -0.3797 0.9233
vn -0.1173 -0.4352 0.8926
vn -0.3016 -0.4519 0.8395
vn -0.2917 -0.3007 0.9080
vn -0.1928 -0.0655 0.9791
vn 0.3151 -0.1157 0.9420
vn 0.1773 0.0826 0.9807
vn 0.1146 0.0542 0.9919
vn -0.1466 -0.1898 0.9708
vn -0.3661 -0.2952 0.8825
vn -0.4012 -0.1190 0.9082
vn -0.4313 0.4724 0.7686
vn -0.0114 0.6391 0.7690
vn -0.4694 0.5607 0.6822
vn 0.1057 0.6506 0.7520
vn -0.0736 0.6779 0.7315
vn -0.4843 0.5798 0.6552
vn -0.0647 0.7642 0.6418
vn 0.1477 0.6721 0.7255
vn -0.1124 0.7725 0.6249
vn -0.5232 0.7416 0.4198
vn -0.0738 0.7867 0.6128
vn 0.0299 0.7574 0.6522
vn 0.1277 0.7820 0.6101
vn -0.1785 0.9096 0.3752
vn -0.4957 0.8320 0.2492
vn -0.1207 0.7644 0.6334
vn -0.0700 0.8586 0.5079
vn 0.1080 0.8618 0.4956
vn 0.0705 0.8678 0.4918
vn -0.2580 0.9551 0.1459
vn -0.4283 0.8922 0.1431
vn -0.1642 0.4004 -0.9015
vn -0.2649 0.0370 -0.9636
vn -0.1091 0.1587 -0.9813
vn 0.0339 0.3446 -0.9381
vn -0.1780 0.1037 -0.9785
vn -0.1936 0.0795 -0.9779
vn 0.2982 0.6591 -0.6904
vn 0.1449 0.5474 -0.8242
vn -0.0377 0.1680 -0.9851
vn -0.0551 -0.1971 -0.9788
vn 0.2597 0.6449 -0.7188
vn 0.3070 0.6884 -0.6572
vn 0.3715 0.5155 -0.7722
vn 0.3126 0.1162 -0.9427
vn 0.0441 -0.1765 -0.9833
vn 0.0808 0.4308 -0.8988
vn 0.1010 0.5804 -0.8080
vn 0.2935 0.4374 -0.8500
vn 0.5138 0.3121 -0.7991
vn 0.5617 0.2825 -0.7776
vn 0.3464 0.0988 -0.9329
vn -0.1618 -0.7801 -0.6044
vn 0.1838 -0.7227 -0.6663
vn 0.1641 -0.7959 -0.5828
vn 0.2761 -0.6792 -0.6800
vn 0.2742 -0.7221 -0.6351
vn 0.3068 -0.8609 -0.4058
vn 0.0658 -0.7036 -0.7076
vn 0.1085 -0.7171 -0.6885
vn 0.0882 -0.8225 -0.5619
vn -0.0022 -0.8613 -0.5082
vn -0.0342 -0.5833 -0.8115
vn -0.0695 -0.7758 -0.6271
vn -0.0817 -0.7404 -0.6671
vn -0.0753 -0.8247 -0.5605
vn -0.0126 -0.8777 -0.4791
vn 0.0654 -0.3347 -0.9400
vn 0.1155 -0.5997 -0.7918
vn 0.1184 -0.7289 -0.6743
vn 0.1808 -0.8087 -0.5597
vn 0.2422 -0.8874 -0.3923
vn 0.3621 -0.9102 -0.2009
vn -0.0955 -0.7787 0.6201
vn 0.0158 -0.8491 0.5280
vn 0.1252 -0.4919 0.8616
vn 0.0068 -0.8337 0.5522
vn 0.1375 -0.5699 0.8101
vn 0.0399 -0.7631 0.6450
vn 0.3237 -0.8005 0.5045
vn 0.3368 -0.6001 0.7255
vn 0.1903 -0.6991 0.6893
vn 0.0979 -0.8574 0.5052
vn 0.5442 -0.6841 0.4857
vn 0.4032 -0.7178 0.5677
vn 0.1449 -0.8551 0.4978
vn -0.0342 -0.8852 0.4639
vn 0.1861 -0.7207 0.6678
vn 0.5540 -0.7662 0.3256
vn 0.3385 -0.8896 0.3065
vn 0.1305 -0.9598 0.2487
vn 0.1261 -0.8895 0.4391
vn 0.2535 -0.5096 0.8222
vn 0.4341 -0.2671 0.8604
vn -0.1054 0.2759 0.9554
vn 0.1710 0.4295 0.8867
vn 0.2101 0.5115 0.8332
vn 0.1941 0.3411 0.9198
vn 0.1428 0.4006 0.9051
vn 0.0507 0.3982 0.9159
vn 0.2023 0.1079 0.9734
vn 0.0873 0.3276 0.9408
vn 0.0133 0.3365 0.9416
vn 0.0402 0.4063 0.9129
vn 0.1754 0.1601 0.9714
vn 0.0408 0.0455 0.9981
vn -0.1109 0.2545 0.9607
vn -0.0722 0.4086 0.9098
vn -0.0487 0.5359 0.8429
vn 0.3779 0.0418 0.9249
vn 0.2307 -0.1502 0.9614
vn 0.1758 -0.0075 0.9844
vn 0.0593 0.4252 0.9032
vn 0.0674 0.5049 0.8605
vn 0.0854 0.6839 0.7246
vn -0.2607 0.9379 -0.2287
vn -0.3051 0.9463 -0.1071
vn -0.3790 0.8877 -0.2615
vn 0.1735 0.9156 0.3628
vn 0.0244 0.9996 0.0140
vn -0.0898 0.9536 -0.2872
vn 0.0424 0.9564 0.2890
vn 0.2811 0.9447 0.1687
vn 0.3291 0.9438 -0.0290
vn 0.1516 0.9884 -0.0013
vn -0.0079 0.9691 0.2467
vn 0.1109 0.9869 -0.1173
vn 0.2366 0.9705 -0.0469
vn 0.2674 0.9604 0.0784
vn 0.2226 0.9731 0.0599
vn 0.3983 0.8760 0.2720
vn 0.3580 0.9336 -0.0144
vn 0.2389 0.9636 -0.1199
vn 0.2723 0.9591 -0.0770
vn 0.3776 0.9240 0.0612
vn 0.4813 0.8703 -0.1045
vn 0.4269 0.7055 -0.5657
vn 0.7050 0.6537 -0.2750
vn 0.4244 0.4684 -0.7749
vn 0.7729 0.6082 -0.1809
vn 0.6552 0.4898 -0.5752
vn 0.3656 0.1731 -0.9145
vn 0.7917 0.5921 -0.1506
vn 0.7652 0.5143 -0.3872
vn 0.4882 0.0939 -0.8676
vn 0.3488 -0.1192 -0.9296
vn 0.9022 0.4220 -0.0896
vn 0.8955 0.3741 -0.2410
vn 0.6243 0.0644 -0.7785
vn 0.3612 -0.1631 -0.9181
vn 0.5021 0.0239 -0.8645
vn 0.9301 0.3666 -0.0232
vn 0.9239 0.3348 -0.1852
vn 0.8401 0.0596 -0.5391
vn 0.3653 -0.2040 -0.9082
vn 0.5253 -0.0296 -0.8504
vn 0.6245 0.1362 -0.7691
vn 0.7483 -0.1713 -0.6409
vn 0.6463 -0.2989 -0.7021
vn 0.7763 -0.1599 -0.6098
vn 0.4660 -0.5158 -0.7189
vn 0.7021 -0.3859 -0.5985
vn 0.8002 -0.3980 -0.4486
vn 0.6350 -0.4905 -0.5968
vn 0.5279 -0.5396 -0.6558
vn 0.6869 -0.5366 -0.4901
vn 0.8086 -0.4470 -0.3826
vn 0.9487 -0.1752 -0.2633
vn 0.6985 -0.4811 -0.5298
vn 0.5015 -0.6219 -0.6015
vn 0.6364 -0.6798 -0.3645
vn 0.8011 -0.5662 -0.1939
vn 0.9805 0.1091 0.1636
vn 0.9837 -0.1784 -0.0227
vn 0.8204 -0.5230 -0.2311
vn 0.4953 -0.7637 -0.4142
vn 0.5983 -0.7768 -0.1964
vn 0.6430 -0.7252 0.2461
vn 0.4233 -0.9046 0.0511
vn 0.2660 -0.9624 0.0560
vn 0.3489 -0.9326 0.0926
vn 0.6896 -0.6989 0.1897
vn 0.5114 -0.8243 0.2429
vn 0.4319 -0.8787 0.2033
vn 0.9180 -0.3642 0.1571
vn 0.7754 -0.4823 0.4077
vn 0.7343 -0.5212 0.4348
vn 0.5848 -0.5778 0.5693
vn 0.9844 0.0387 0.1718
vn 0.8903 -0.0791 0.4485
vn 0.7922 -0.1020 0.6016
vn 0.7188 -0.1147 0.6857
vn 0.5738 -0.1475 0.8056
vn 0.9682 0.1008 0.2290
vn 0.9214 0.0671 0.3827
vn 0.8474 -0.1040 0.5207
vn 0.7620 -0.1440 0.6314
vn 0.6556 -0.0688 0.7520
vn 0.5838 -0.0637 0.8094
vn 0.5050 0.8573 -0.1003
vn 0.4615 0.8604 -0.2163
vn 0.5887 0.7723 -0.2387
vn 0.4525 0.8668 -0.2094
vn 0.5966 0.7767 -0.2020
vn 0.7126 0.6563 -0.2480
vn 0.4525 0.8832 -0.1235
vn 0.4913 0.8264 -0.2751
vn 0.5719 0.7003 -0.4271
vn 0.7486 0.5297 -0.3987
vn 0.3259 0.9453 -0.0109
vn 0.4073 0.9060 -0.1150
vn 0.5382 0.8148 -0.2154
vn 0.7605 0.4550 -0.4633
vn 0.8613 0.2949 -0.4137
vn 0.2107 0.9368 0.2793
vn 0.5256 0.8340 0.1677
vn 0.6208 0.7496 0.2297
vn 0.8510 0.5217 0.0600
vn 0.9085 0.2795 -0.3107
vn 0.9401 0.0775 -0.3319
vn 0.3770 -0.3161 0.8706
vn 0.6137 -0.1813 0.7685
vn 0.4897 0.0188 0.8717
vn 0.7149 -0.0842 0.6941
vn 0.6381 0.1092 0.7622
vn 0.6081 -0.0755 0.7903
vn 0.8898 -0.0706 0.4508
vn 0.7054 -0.0050 0.7088
vn 0.6316 -0.0750 0.7716
vn 0.5942 0.1601 0.7882
vn 0.9717 -0.0964 0.2157
vn 0.8966 -0.0448 0.4405
vn 0.7625 0.1257 0.6347
vn 0.6760 0.3961 0.6214
vn 0.5141 0.5556 0.6534
vn 0.9829 -0.1582 0.0938
vn 0.9387 -0.1319 0.3186
vn 0.8617 0.2140 0.4602
vn 0.6702 0.5351 0.5143
vn 0.6215 0.6000 0.5038
vn 0.4572 0.6946 0.5555
vt 0.640144 0.684333
vt 0.631819 0.668104
vt 0.654140 0.673295
vt 0.432588 0.127514
vt 0.429340 0.103833
vt 0.448678 0.120567
vt 0.656828 0.694517
vt 0.636168 0.702445
vt 0.620712 0.686121
vt 0.445258 0.148185
vt 0.235515 0.115841
vt 0.247186 0.108069
vt 0.247514 0.135210
vt 0.064170 0.116861
vt 0.082235 0.110913
vt 0.070361 0.137758
vt 0.903797 0.568322
vt 0.885141 0.576364
vt 0.894921 0.550815
vt 0.626344 0.070851
vt 0.644300 0.065299
vt 0.638858 0.090311
vt 0.423811 0.148067
vt 0.230276 0.136522
vt 0.050634 0.136767
vt 0.916466 0.548023
vt 0.616015 0.089739
vt 0.340310 0.346648
vt 0.359100 0.357316
vt 0.342605 0.377968
vt 0.145720 0.341506
vt 0.163603 0.349492
vt 0.143849 0.372894
vt 0.811654 0.345567
vt 0.794796 0.336307
vt 0.814085 0.309870
vt 0.715561 0.314795
vt 0.727268 0.327324
vt 0.710021 0.351410
vt 0.544031 0.303379
vt 0.562190 0.313090
vt 0.549887 0.338669
vt 0.392782 0.614166
vt 0.391407 0.645832
vt 0.376430 0.618778
vt 0.603802 0.556242
vt 0.628609 0.584271
vt 0.615537 0.588084
vt 0.591276 0.515026
vt 0.616638 0.540874
vt 0.578844 0.469608
vt 0.603931 0.493342
vt 0.567409 0.423316
vt 0.591371 0.444111
vt 0.557657 0.378988
vt 0.579872 0.396129
vt 0.570072 0.351950
vt 0.410053 0.612764
vt 0.652543 0.581590
vt 0.639254 0.622184
vt 0.642359 0.550606
vt 0.666430 0.536289
vt 0.630504 0.507383
vt 0.656467 0.505136
vt 0.679973 0.488083
vt 0.617766 0.459151
vt 0.644696 0.463645
vt 0.670024 0.456001
vt 0.692166 0.439545
vt 0.605119 0.410109
vt 0.631917 0.417622
vt 0.658200 0.416510
vt 0.682038 0.407440
vt 0.702272 0.393324
vt 0.593495 0.363668
vt 0.619158 0.371707
vt 0.645338 0.374225
vt 0.670084 0.370743
vt 0.691879 0.362458
vt 0.583491 0.322125
vt 0.607341 0.329234
vt 0.632470 0.333133
vt 0.657175 0.333081
vt 0.679840 0.329291
vt 0.699416 0.322776
vt 0.109915 0.640855
vt 0.105896 0.608641
vt 0.123627 0.614431
vt 0.884027 0.057434
vt 0.861439 0.057124
vt 0.865853 0.018089
vt 0.903135 0.101401
vt 0.880257 0.089620
vt 0.921931 0.148266
vt 0.899841 0.133762
vt 0.701885 0.461204
vt 0.713110 0.412514
vt 0.721534 0.367301
vt 0.844571 0.054128
vt 0.838840 0.087254
vt 0.856293 0.101752
vt 0.832882 0.129755
vt 0.875495 0.134096
vt 0.850632 0.150546
vt 0.827069 0.176391
vt 0.918692 0.181546
vt 0.895133 0.176520
vt 0.869858 0.183589
vt 0.844833 0.200969
vt 0.821822 0.223752
vt 0.939061 0.195544
vt 0.935405 0.228837
vt 0.913623 0.222303
vt 0.889143 0.223805
vt 0.863726 0.233806
vt 0.839332 0.249978
vt 0.817454 0.268931
vt 0.949115 0.272704
vt 0.929662 0.266791
vt 0.906964 0.265846
vt 0.882333 0.270887
vt 0.857596 0.281250
vt 0.834476 0.294966
vt 0.959648 0.311462
vt 0.942615 0.307112
vt 0.922228 0.305700
vt 0.899309 0.308101
vt 0.875311 0.314360
vt 0.851899 0.323587
vt 0.830428 0.334412
vt 0.126212 0.590032
vt 0.086937 0.580482
vt 0.107606 0.578770
vt 0.816661 0.118954
vt 0.809938 0.161204
vt 0.804109 0.207790
vt 0.799599 0.254408
vt 0.796543 0.297861
vt 0.129185 0.559265
vt 0.087629 0.551686
vt 0.109904 0.543867
vt 0.132398 0.523944
vt 0.067296 0.514748
vt 0.089373 0.516100
vt 0.112787 0.505033
vt 0.135662 0.485621
vt 0.786241 0.198988
vt 0.068934 0.479787
vt 0.092240 0.476416
vt 0.116136 0.464116
vt 0.138765 0.446312
vt 0.781180 0.243945
vt 0.050177 0.439452
vt 0.072267 0.441270
vt 0.096091 0.435393
vt 0.119720 0.423475
vt 0.141527 0.408161
vt 0.778111 0.287892
vt 0.760083 0.281598
vt 0.054391 0.403584
vt 0.077029 0.402341
vt 0.100579 0.395738
vt 0.123280 0.385299
vt 0.776854 0.327918
vt 0.758877 0.321442
vt 0.039602 0.366864
vt 0.060250 0.368288
vt 0.082680 0.365629
vt 0.105279 0.359494
vt 0.126601 0.351046
vt 0.143450 0.588720
vt 0.147323 0.566493
vt 0.151375 0.535756
vt 0.155229 0.499436
vt 0.158528 0.460157
vt 0.161033 0.420625
vt 0.162690 0.383214
vt 0.350647 0.569760
vt 0.366097 0.563811
vt 0.371508 0.594471
vt 0.170606 0.534292
vt 0.343936 0.539074
vt 0.360442 0.528604
vt 0.175403 0.503656
vt 0.320360 0.505658
vt 0.337537 0.502841
vt 0.354919 0.490398
vt 0.179317 0.467492
vt 0.199564 0.465951
vt 0.313878 0.469578
vt 0.332008 0.463681
vt 0.349937 0.451202
vt 0.181941 0.428956
vt 0.202789 0.430999
vt 0.291326 0.431798
vt 0.309113 0.431192
vt 0.327760 0.424291
vt 0.345794 0.413150
vt 0.183175 0.391050
vt 0.204078 0.394756
vt 0.223797 0.393255
vt 0.288029 0.395768
vt 0.306295 0.393488
vt 0.324919 0.387033
vt 0.183216 0.356029
vt 0.203612 0.360001
vt 0.223413 0.360475
vt 0.241167 0.357142
vt 0.287056 0.361295
vt 0.305236 0.358697
vt 0.323336 0.353462
vt 0.388631 0.584473
vt 0.383777 0.549744
vt 0.378414 0.511065
vt 0.372899 0.470269
vt 0.367648 0.429705
vt 0.362993 0.391566
vt 0.411062 0.587334
vt 0.407624 0.558789
vt 0.430331 0.551264
vt 0.403175 0.523423
vt 0.427377 0.523302
vt 0.567084 0.485492
vt 0.397841 0.483898
vt 0.422991 0.488566
vt 0.446394 0.482937
vt 0.554624 0.440131
vt 0.391982 0.442958
vt 0.417298 0.450168
vt 0.441637 0.449578
vt 0.463255 0.441555
vt 0.544094 0.394488
vt 0.386079 0.403308
vt 0.410741 0.411244
vt 0.435254 0.413753
vt 0.457801 0.410384
vt 0.521997 0.362622
vt 0.535959 0.351728
vt 0.380558 0.367006
vt 0.403921 0.374439
vt 0.427827 0.378365
vt 0.450615 0.378085
vt 0.470845 0.373806
vt 0.516052 0.323093
vt 0.530174 0.313712
vt 0.550145 0.274765
vt 0.558156 0.242704
vt 0.570290 0.281763
vt 0.568095 0.208490
vt 0.580272 0.246826
vt 0.579623 0.174118
vt 0.591873 0.210094
vt 0.592026 0.141825
vt 0.604412 0.174073
vt 0.604415 0.113400
vt 0.616952 0.141209
vt 0.628619 0.113122
vt 0.593667 0.287913
vt 0.605412 0.250269
vt 0.619287 0.292235
vt 0.618091 0.211583
vt 0.632132 0.252470
vt 0.645445 0.293918
vt 0.630752 0.174711
vt 0.644936 0.212773
vt 0.658399 0.253074
vt 0.670196 0.292740
vt 0.642441 0.142028
vt 0.656692 0.176028
vt 0.670307 0.213546
vt 0.682282 0.252123
vt 0.692017 0.289178
vt 0.652531 0.114754
vt 0.666690 0.144226
vt 0.680370 0.177871
vt 0.692572 0.213893
vt 0.702589 0.250003
vt 0.710190 0.284105
vt 0.727404 0.286916
vt 0.968598 0.383539
vt 0.956754 0.345753
vt 0.971993 0.348765
vt 0.962512 0.420481
vt 0.951427 0.383655
vt 0.953615 0.457464
vt 0.943363 0.423203
vt 0.942345 0.492137
vt 0.932781 0.461758
vt 0.929608 0.522631
vt 0.920470 0.496780
vt 0.907518 0.526623
vt 0.937675 0.344542
vt 0.930284 0.385203
vt 0.915183 0.345891
vt 0.920478 0.426558
vt 0.906024 0.388418
vt 0.890546 0.350104
vt 0.908860 0.465648
vt 0.895177 0.430351
vt 0.880357 0.393140
vt 0.865592 0.356772
vt 0.896436 0.500074
vt 0.883494 0.468786
vt 0.869437 0.434260
vt 0.855307 0.398834
vt 0.842090 0.364948
vt 0.884233 0.528659
vt 0.871944 0.501788
vt 0.858637 0.470992
vt 0.845188 0.437954
vt 0.832497 0.404831
vt 0.821221 0.373598
vt 0.799195 0.374371
vt 0.786103 0.405887
vt 0.780695 0.367290
vt 0.773198 0.438789
vt 0.766398 0.400988
vt 0.761505 0.471183
vt 0.753062 0.435659
vt 0.751945 0.501075
vt 0.741907 0.469048
vt 0.036863 0.160962
vt 0.043174 0.189601
vt 0.023863 0.189279
vt 0.056774 0.161378
vt 0.761509 0.360991
vt 0.746692 0.396503
vt 0.743057 0.356257
vt 0.045173 0.332701
vt 0.030706 0.221786
vt 0.040643 0.258018
vt 0.020534 0.256362
vt 0.031538 0.294516
vt 0.053334 0.295819
vt 0.067780 0.332480
vt 0.052204 0.222613
vt 0.063833 0.258485
vt 0.077321 0.294836
vt 0.091514 0.329129
vt 0.065188 0.190462
vt 0.075864 0.223177
vt 0.088292 0.257744
vt 0.101541 0.291854
vt 0.114577 0.323399
vt 0.078416 0.162844
vt 0.088348 0.191786
vt 0.099803 0.223450
vt 0.112065 0.256027
vt 0.124258 0.287515
vt 0.135629 0.316307
vt 0.158492 0.315546
vt 0.172402 0.286201
vt 0.178310 0.321175
vt 0.186750 0.254396
vt 0.193807 0.289249
vt 0.200551 0.221727
vt 0.209028 0.255052
vt 0.212792 0.190145
vt 0.222723 0.220637
vt 0.222771 0.161387
vt 0.233883 0.188220
vt 0.242088 0.159484
vt 0.199566 0.325195
vt 0.216037 0.290803
vt 0.220902 0.326721
vt 0.231235 0.254678
vt 0.237364 0.290350
vt 0.240621 0.325220
vt 0.243840 0.219244
vt 0.251482 0.253137
vt 0.255993 0.287761
vt 0.275077 0.291671
vt 0.289907 0.326973
vt 0.271230 0.327058
vt 0.253114 0.186756
vt 0.262161 0.217635
vt 0.270401 0.221349
vt 0.281620 0.256551
vt 0.262161 0.254688
vt 0.294983 0.291596
vt 0.309271 0.324364
vt 0.259077 0.158624
vt 0.273506 0.162230
vt 0.280548 0.191602
vt 0.262161 0.188265
vt 0.290190 0.223905
vt 0.301926 0.257354
vt 0.314836 0.289944
vt 0.327901 0.320027
vt 0.350005 0.322210
vt 0.361394 0.294253
vt 0.370888 0.330551
vt 0.374168 0.263632
vt 0.384208 0.299940
vt 0.387660 0.231898
vt 0.398405 0.266756
vt 0.400961 0.200990
vt 0.412481 0.233030
vt 0.413203 0.172674
vt 0.425393 0.201009
vt 0.436406 0.172443
vt 0.394366 0.337628
vt 0.409219 0.304333
vt 0.419252 0.342338
vt 0.424082 0.268911
vt 0.434794 0.306681
vt 0.443775 0.343826
vt 0.437759 0.233816
vt 0.449267 0.269744
vt 0.458914 0.306580
vt 0.466113 0.341894
vt 0.449317 0.201385
vt 0.461542 0.234174
vt 0.471991 0.269176
vt 0.479883 0.304184
vt 0.485015 0.337101
vt 0.515157 0.283765
vt 0.458373 0.173127
vt 0.471042 0.202106
vt 0.482204 0.234113
vt 0.490953 0.267434
vt 0.503513 0.212763
vt 0.516518 0.244936
vt 0.500473 0.250971
vt 0.530368 0.275550
vt 0.721886 0.253642
vt 0.713644 0.217429
vt 0.702524 0.180240
vt 0.688959 0.144600
vt 0.673946 0.112828
vt 0.658715 0.086309
vt 0.738843 0.255923
vt 0.732848 0.220565
vt 0.979466 0.414610
vt 0.723617 0.183237
vt 0.741907 0.186671
vt 0.972096 0.452694
vt 0.711147 0.146397
vt 0.731365 0.149698
vt 0.979466 0.485118
vt 0.961499 0.489387
vt 0.696174 0.112703
vt 0.717481 0.114831
vt 0.736073 0.119218
vt 0.967037 0.519973
vt 0.948466 0.522289
vt 0.679996 0.084104
vt 0.701331 0.084429
vt 0.721023 0.087644
vt 0.521883 0.832389
vt 0.541257 0.849067
vt 0.521773 0.858040
vt 0.952417 0.549806
vt 0.934229 0.549921
vt 0.663972 0.061321
vt 0.684401 0.059763
vt 0.508058 0.788681
vt 0.523905 0.806901
vt 0.504202 0.813714
vt 0.541731 0.824245
vt 0.560218 0.839618
vt 0.560751 0.862869
vt 0.578092 0.852421
vt 0.920002 0.571959
vt 0.808815 0.404977
vt 0.820422 0.438265
vt 0.833649 0.472380
vt 0.847690 0.504942
vt 0.861506 0.533791
vt 0.874172 0.557661
vt 0.795846 0.438558
vt 0.807862 0.472914
vt 0.783244 0.472483
vt 0.821670 0.506624
vt 0.795792 0.506459
vt 0.772079 0.504473
vt 0.836300 0.537201
vt 0.810196 0.538195
vt 0.785229 0.536526
vt 0.763182 0.532533
vt 0.020861 0.156233
vt 0.850600 0.562866
vt 0.825332 0.565516
vt 0.800126 0.565040
vt 0.776854 0.561501
vt 0.756866 0.555569
vt 0.035454 0.130329
vt 0.863639 0.583017
vt 0.840001 0.587314
vt 0.815558 0.588467
vt 0.791995 0.586208
vt 0.770819 0.580932
vt 0.020534 0.124678
vt 0.036224 0.102127
vt 0.050321 0.109155
vt 0.148469 0.287702
vt 0.136989 0.256539
vt 0.124583 0.223455
vt 0.112106 0.190519
vt 0.100494 0.159893
vt 0.090441 0.133144
vt 0.162486 0.255981
vt 0.150919 0.223163
vt 0.176864 0.222567
vt 0.138308 0.189656
vt 0.165145 0.189315
vt 0.190517 0.189510
vt 0.125598 0.157783
vt 0.152293 0.156868
vt 0.178551 0.157292
vt 0.202443 0.158914
vt 0.113753 0.129514
vt 0.139322 0.127432
vt 0.165454 0.127266
vt 0.190209 0.129008
vt 0.212059 0.132280
vt 0.103437 0.105890
vt 0.127198 0.102459
vt 0.152271 0.101174
vt 0.176962 0.102245
vt 0.199657 0.105440
vt 0.219294 0.110193
vt 0.337651 0.292947
vt 0.324702 0.260481
vt 0.312080 0.226272
vt 0.300848 0.192426
vt 0.291845 0.161107
vt 0.269041 0.136874
vt 0.285396 0.133857
vt 0.349365 0.262625
vt 0.336811 0.228501
vt 0.362660 0.230413
vt 0.324698 0.193850
vt 0.350666 0.195862
vt 0.376721 0.198316
vt 0.314044 0.161031
vt 0.339124 0.162263
vt 0.365291 0.164819
vt 0.390507 0.168433
vt 0.305539 0.132016
vt 0.328939 0.131855
vt 0.354232 0.133649
vt 0.379538 0.137283
vt 0.403102 0.142294
vt 0.281312 0.111275
vt 0.299354 0.107821
vt 0.320662 0.106092
vt 0.344328 0.106577
vt 0.368832 0.109405
vt 0.392489 0.114263
vt 0.413974 0.120530
vt 0.536474 0.244331
vt 0.522859 0.211587
vt 0.500473 0.233663
vt 0.490012 0.200094
vt 0.477072 0.169248
vt 0.462888 0.142570
vt 0.544907 0.210136
vt 0.510468 0.178283
vt 0.531990 0.176211
vt 0.555670 0.174806
vt 0.500473 0.146610
vt 0.520601 0.143145
vt 0.543801 0.141140
vt 0.568260 0.140765
vt 0.495434 0.165998
vt 0.511771 0.113251
vt 0.533573 0.109905
vt 0.557546 0.108943
vt 0.581736 0.110283
vt 0.480894 0.137687
vt 0.497860 0.134181
vt 0.525774 0.083124
vt 0.548362 0.080854
vt 0.572045 0.081535
vt 0.595039 0.084757
vt 0.465581 0.114279
vt 0.482240 0.109371
vt 0.520618 0.061778
vt 0.541257 0.057914
vt 0.563629 0.057253
vt 0.586133 0.059663
vt 0.607341 0.064487
vt 0.624833 0.049783
vt 0.622988 0.029234
vt 0.643789 0.043437
vt 0.528160 0.710499
vt 0.519404 0.735651
vt 0.508144 0.720260
vt 0.550898 0.701762
vt 0.541766 0.726361
vt 0.574968 0.694649
vt 0.566349 0.718027
vt 0.598709 0.689456
vt 0.591361 0.711174
vt 0.615036 0.706014
vt 0.642662 0.022756
vt 0.512552 0.762314
vt 0.500473 0.745222
vt 0.664362 0.039410
vt 0.533835 0.753335
vt 0.527792 0.780831
vt 0.558108 0.744468
vt 0.550976 0.772321
vt 0.545473 0.799505
vt 0.583690 0.736328
vt 0.576261 0.763642
vt 0.569661 0.791173
vt 0.564281 0.816949
vt 0.608604 0.729385
vt 0.601710 0.755375
vt 0.594808 0.782384
vt 0.588376 0.808498
vt 0.582758 0.832128
vt 0.631262 0.723838
vt 0.625477 0.747995
vt 0.619042 0.773733
vt 0.612341 0.799409
vt 0.605804 0.823405
vt 0.599779 0.844610
vt 0.594458 0.862577
vt 0.900639 0.589035
vt 0.621260 0.840943
vt 0.628703 0.817771
vt 0.636147 0.791926
vt 0.643039 0.764943
vt 0.648902 0.738735
vt 0.653493 0.714948
vt 0.614267 0.860662
vt 0.880257 0.597901
vt 0.644955 0.835441
vt 0.636400 0.856996
vt 0.856972 0.604609
vt 0.653439 0.810460
vt 0.669548 0.827971
vt 0.659923 0.851232
vt 0.831863 0.607991
vt 0.661144 0.783253
vt 0.678329 0.801659
vt 0.693221 0.818798
vt 0.683358 0.843331
vt 0.806655 0.607316
vt 0.667427 0.755726
vt 0.685428 0.773893
vt 0.701383 0.791933
vt 0.714220 0.808589
vt 0.705034 0.833690
vt 0.783221 0.602671
vt 0.671956 0.729877
vt 0.690329 0.746746
vt 0.707107 0.764561
vt 0.721018 0.782071
vt 0.063714 0.059743
vt 0.055899 0.084442
vt 0.041954 0.076660
vt 0.674780 0.707128
vt 0.693011 0.722034
vt 0.710183 0.738636
vt 0.724977 0.755930
vt 0.086661 0.046796
vt 0.077321 0.069681
vt 0.069840 0.093534
vt 0.089875 0.086448
vt 0.099310 0.061972
vt 0.727691 0.731146
vt 0.710900 0.713364
vt 0.692010 0.697342
vt 0.672629 0.683907
vt 0.113150 0.080927
vt 0.110302 0.039309
vt 0.124348 0.056680
vt 0.138696 0.077850
vt 0.122224 0.020313
vt 0.136433 0.035160
vt 0.151015 0.054773
vt 0.164825 0.077788
vt 0.709108 0.688092
vt 0.727691 0.705291
vt 0.148508 0.018089
vt 0.163259 0.035169
vt 0.177289 0.056626
vt 0.189596 0.080719
vt 0.689012 0.673662
vt 0.704758 0.664787
vt 0.174476 0.020370
vt 0.188683 0.039308
vt 0.201234 0.061820
vt 0.211478 0.086050
vt 0.669119 0.662426
vt 0.684233 0.652660
vt 0.698353 0.645006
vt 0.198257 0.026663
vt 0.211057 0.046715
vt 0.221640 0.069362
vt 0.229737 0.092893
vt 0.604440 0.042673
vt 0.581907 0.037862
vt 0.558482 0.036403
vt 0.535900 0.038874
vt 0.463134 0.088420
vt 0.445938 0.095491
vt 0.601436 0.022050
vt 0.514587 0.697246
vt 0.578032 0.018089
vt 0.523820 0.673563
vt 0.536814 0.687015
vt 0.554350 0.018402
vt 0.535745 0.651068
vt 0.547934 0.663686
vt 0.561387 0.678706
vt 0.479650 0.083601
vt 0.458539 0.063161
vt 0.474388 0.059315
vt 0.451667 0.040585
vt 0.560998 0.642476
vt 0.573634 0.656666
vt 0.586516 0.672845
vt 0.441557 0.070260
vt 0.435395 0.046727
vt 0.574992 0.625026
vt 0.586822 0.637427
vt 0.598912 0.652732
vt 0.610408 0.669444
vt 0.424849 0.079488
vt 0.419036 0.055965
vt 0.412056 0.035006
vt 0.427672 0.026799
vt 0.599923 0.622184
vt 0.611286 0.635719
vt 0.622107 0.651498
vt 0.241175 0.083789
vt 0.232350 0.059451
vt 0.220589 0.036879
vt 0.676149 0.634572
vt 0.661112 0.644195
vt 0.646001 0.655784
vt 0.274566 0.093234
vt 0.291276 0.087614
vt 0.285143 0.070181
vt 0.304170 0.063987
vt 0.311699 0.083714
vt 0.298609 0.048136
vt 0.319812 0.042185
vt 0.326845 0.060338
vt 0.335255 0.082363
vt 0.314571 0.028793
vt 0.337382 0.024024
vt 0.344168 0.039664
vt 0.352098 0.060140
vt 0.360549 0.084053
vt 0.651140 0.626870
vt 0.362446 0.023377
vt 0.370139 0.041327
vt 0.378096 0.063689
vt 0.385700 0.088683
vt 0.636210 0.638408
vt 0.625074 0.622718
vt 0.387970 0.027223
vt 0.395693 0.047069
vt 0.402839 0.070487
vt 0.408987 0.095586
vt 0.404326 0.018089
s 1
usemtl Material.001
f 1/1/1 20/2/20 19/3/19
f 2/4/2 26/5/26 40/6/40
f 1/1/1 19/3/19 54/7/54
f 1/1/1 54/7/54 68/8/68
f 1/1/1 68/8/68 41/9/41
f 2/4/2 40/6/40 89/10/89
f 3/11/3 33/12/33 103/13/103
f 4/14/4 61/15/61 117/16/117
f 5/17/5 75/18/75 131/19/131
f 6/20/6 82/21/82 145/22/145
f 2/4/2 89/10/89 104/23/104
f 3/11/3 103/13/103 118/24/118
f 4/14/4 117/16/117 132/25/132
f 5/17/5 131/19/131 146/26/146
f 6/20/6 145/22/145 90/27/90
f 7/28/7 159/29/159 194/30/194
f 8/31/8 166/32/166 208/33/208
f 9/34/9 173/35/173 215/36/215
f 10/37/10 180/38/180 222/39/222
f 11/40/11 187/41/187 195/42/195
f 201/43/201 216/44/216 12/45/12
f 200/46/200 223/47/223 201/48/201
f 199/49/199 224/50/224 200/46/200
f 198/51/198 226/52/226 199/49/199
f 197/53/197 229/54/229 198/51/198
f 196/55/196 233/56/233 197/53/197
f 195/42/195 238/57/238 196/55/196
f 201/43/201 223/58/223 216/44/216
f 223/47/223 217/59/217 216/60/216
f 200/46/200 224/50/224 223/47/223
f 224/50/224 225/61/225 223/47/223
f 223/47/223 225/61/225 217/59/217
f 225/61/225 218/62/218 217/59/217
f 199/49/199 226/52/226 224/50/224
f 226/52/226 227/63/227 224/50/224
f 224/50/224 227/63/227 225/61/225
f 227/63/227 228/64/228 225/61/225
f 225/61/225 228/64/228 218/62/218
f 228/64/228 219/65/219 218/62/218
f 198/51/198 229/54/229 226/52/226
f 229/54/229 230/66/230 226/52/226
f 226/52/226 230/66/230 227/63/227
f 230/66/230 231/67/231 227/63/227
f 227/63/227 231/67/231 228/64/228
f 231/67/231 232/68/232 228/64/228
f 228/64/228 232/68/232 219/65/219
f 232/68/232 220/69/220 219/65/219
f 197/53/197 233/56/233 229/54/229
f 233/56/233 234/70/234 229/54/229
f 229/54/229 234/70/234 230/66/230
f 234/70/234 235/71/235 230/66/230
f 230/66/230 235/71/235 231/67/231
f 235/71/235 236/72/236 231/67/231
f 231/67/231 236/72/236 232/68/232
f 236/72/236 237/73/237 232/68/232
f 232/68/232 237/73/237 220/69/220
f 237/73/237 221/74/221 220/69/220
f 196/55/196 238/57/238 233/56/233
f 238/57/238 239/75/239 233/56/233
f 233/56/233 239/75/239 234/70/234
f 239/75/239 240/76/240 234/70/234
f 234/70/234 240/76/240 235/71/235
f 240/76/240 241/77/241 235/71/235
f 235/71/235 241/77/241 236/72/236
f 241/77/241 242/78/242 236/72/236
f 236/72/236 242/78/242 237/73/237
f 242/78/242 243/79/243 237/73/237
f 237/73/237 243/79/243 221/74/221
f 243/79/243 222/39/222 221/74/221
f 195/42/195 187/41/187 238/57/238
f 187/41/187 186/80/186 238/57/238
f 238/57/238 186/80/186 239/75/239
f 186/80/186 185/81/185 239/75/239
f 239/75/239 185/81/185 240/76/240
f 185/81/185 184/82/184 240/76/240
f 240/76/240 184/82/184 241/77/241
f 184/82/184 183/83/183 241/77/241
f 241/77/241 183/83/183 242/78/242
f 183/83/183 182/84/182 242/78/242
f 242/78/242 182/84/182 243/79/243
f 182/84/182 181/85/181 243/79/243
f 243/79/243 181/85/181 222/39/222
f 181/85/181 10/37/10 222/39/222
f 216/86/216 209/87/209 12/88/12
f 217/89/217 244/90/244 216/91/216
f 218/92/218 245/93/245 217/89/217
f 219/94/219 247/95/247 218/92/218
f 220/69/220 250/96/250 219/65/219
f 221/74/221 254/97/254 220/69/220
f 222/39/222 259/98/259 221/74/221
f 216/91/216 244/90/244 209/99/209
f 244/90/244 210/100/210 209/99/209
f 217/89/217 245/93/245 244/90/244
f 245/93/245 246/101/246 244/90/244
f 244/90/244 246/101/246 210/100/210
f 246/101/246 211/102/211 210/100/210
f 218/92/218 247/95/247 245/93/245
f 247/95/247 248/103/248 245/93/245
f 245/93/245 248/103/248 246/101/246
f 248/103/248 249/104/249 246/101/246
f 246/101/246 249/104/249 211/102/211
f 249/104/249 212/105/212 211/102/211
f 219/94/219 250/106/250 247/95/247
f 250/106/250 251/107/251 247/95/247
f 247/95/247 251/107/251 248/103/248
f 251/107/251 252/108/252 248/103/248
f 248/103/248 252/108/252 249/104/249
f 252/108/252 253/109/253 249/104/249
f 249/104/249 253/109/253 212/105/212
f 253/109/253 213/110/213 212/105/212
f 220/111/220 254/112/254 250/106/250
f 254/112/254 255/113/255 250/106/250
f 250/106/250 255/113/255 251/107/251
f 255/113/255 256/114/256 251/107/251
f 251/107/251 256/114/256 252/108/252
f 256/114/256 257/115/257 252/108/252
f 252/108/252 257/115/257 253/109/253
f 257/115/257 258/116/258 253/109/253
f 253/109/253 258/116/258 213/110/213
f 258/116/258 214/117/214 213/110/213
f 221/74/221 259/98/259 254/97/254
f 259/118/259 260/119/260 254/112/254
f 254/112/254 260/119/260 255/113/255
f 260/119/260 261/120/261 255/113/255
f 255/113/255 261/120/261 256/114/256
f 261/120/261 262/121/262 256/114/256
f 256/114/256 262/121/262 257/115/257
f 262/121/262 263/122/263 257/115/257
f 257/115/257 263/122/263 258/116/258
f 263/122/263 264/123/264 258/116/258
f 258/116/258 264/123/264 214/117/214
f 264/123/264 215/36/215 214/117/214
f 222/39/222 180/38/180 259/98/259
f 180/124/180 179/125/179 259/118/259
f 259/118/259 179/125/179 260/119/260
f 179/125/179 178/126/178 260/119/260
f 260/119/260 178/126/178 261/120/261
f 178/126/178 177/127/177 261/120/261
f 261/120/261 177/127/177 262/121/262
f 177/127/177 176/128/176 262/121/262
f 262/121/262 176/128/176 263/122/263
f 176/128/176 175/129/175 263/122/263
f 263/122/263 175/129/175 264/123/264
f 175/129/175 174/130/174 264/123/264
f 264/123/264 174/130/174 215/36/215
f 174/130/174 9/34/9 215/36/215
f 209/87/209 202/131/202 12/88/12
f 210/132/210 265/133/265 209/87/209
f 211/102/211 266/134/266 210/100/210
f 212/105/212 268/135/268 211/102/211
f 213/110/213 271/136/271 212/105/212
f 214/117/214 275/137/275 213/110/213
f 215/36/215 280/138/280 214/117/214
f 209/87/209 265/133/265 202/131/202
f 265/133/265 203/139/203 202/131/202
f 210/132/210 266/140/266 265/133/265
f 266/140/266 267/141/267 265/133/265
f 265/133/265 267/141/267 203/139/203
f 267/141/267 204/142/204 203/139/203
f 211/102/211 268/135/268 266/134/266
f 268/143/268 269/144/269 266/140/266
f 266/140/266 269/144/269 267/141/267
f 269/144/269 270/145/270 267/141/267
f 267/141/267 270/145/270 204/142/204
f 270/145/270 205/146/205 204/142/204
f 212/105/212 271/136/271 268/135/268
f 271/136/271 272/147/272 268/135/268
f 268/143/268 272/148/272 269/144/269
f 272/148/272 273/149/273 269/144/269
f 269/144/269 273/149/273 270/145/270
f 273/149/273 274/150/274 270/145/270
f 270/145/270 274/150/274 205/146/205
f 274/150/274 206/151/206 205/146/205
f 213/110/213 275/137/275 271/136/271
f 275/137/275 276/152/276 271/136/271
f 271/136/271 276/152/276 272/147/272
f 276/153/276 277/154/277 272/148/272
f 272/148/272 277/154/277 273/149/273
f 277/154/277 278/155/278 273/149/273
f 273/149/273 278/155/278 274/150/274
f 278/155/278 279/156/279 274/150/274
f 274/150/274 279/156/279 206/151/206
f 279/156/279 207/157/207 206/151/206
f 214/117/214 280/138/280 275/137/275
f 280/138/280 281/158/281 275/137/275
f 275/137/275 281/158/281 276/152/276
f 281/158/281 282/159/282 276/152/276
f 276/153/276 282/160/282 277/154/277
f 282/160/282 283/161/283 277/154/277
f 277/154/277 283/161/283 278/155/278
f 283/161/283 284/162/284 278/155/278
f 278/155/278 284/162/284 279/156/279
f 284/162/284 285/163/285 279/156/279
f 279/156/279 285/163/285 207/157/207
f 285/163/285 208/33/208 207/157/207
f 215/36/215 173/35/173 280/138/280
f 173/35/173 172/164/172 280/138/280
f 280/138/280 172/164/172 281/158/281
f 172/164/172 171/165/171 281/158/281
f 281/158/281 171/165/171 282/159/282
f 171/166/171 170/167/170 282/160/282
f 282/160/282 170/167/170 283/161/283
f 170/167/170 169/168/169 283/161/283
f 283/161/283 169/168/169 284/162/284
f 169/168/169 168/169/168 284/162/284
f 284/162/284 168/169/168 285/163/285
f 168/169/168 167/170/167 285/163/285
f 285/163/285 167/170/167 208/33/208
f 167/170/167 8/31/8 208/33/208
f 202/131/202 188/171/188 12/88/12
f 203/139/203 286/172/286 202/131/202
f 204/142/204 287/173/287 203/139/203
f 205/146/205 289/174/289 204/142/204
f 206/151/206 292/175/292 205/146/205
f 207/157/207 296/176/296 206/151/206
f 208/33/208 301/177/301 207/157/207
f 202/131/202 286/172/286 188/171/188
f 286/178/286 189/179/189 188/180/188
f 203/139/203 287/173/287 286/172/286
f 287/173/287 288/181/288 286/172/286
f 286/178/286 288/182/288 189/179/189
f 288/182/288 190/183/190 189/179/189
f 204/142/204 289/174/289 287/173/287
f 289/174/289 290/184/290 287/173/287
f 287/173/287 290/184/290 288/181/288
f 290/185/290 291/186/291 288/182/288
f 288/182/288 291/186/291 190/183/190
f 291/186/291 191/187/191 190/183/190
f 205/146/205 292/175/292 289/174/289
f 292/175/292 293/188/293 289/174/289
f 289/174/289 293/188/293 290/184/290
f 293/188/293 294/189/294 290/184/290
f 290/185/290 294/190/294 291/186/291
f 294/190/294 295/191/295 291/186/291
f 291/186/291 295/191/295 191/187/191
f 295/191/295 192/192/192 191/187/191
f 206/151/206 296/176/296 292/175/292
f 296/176/296 297/193/297 292/175/292
f 292/175/292 297/193/297 293/188/293
f 297/193/297 298/194/298 293/188/293
f 293/188/293 298/194/298 294/189/294
f 298/195/298 299/196/299 294/190/294
f 294/190/294 299/196/299 295/191/295
f 299/196/299 300/197/300 295/191/295
f 295/191/295 300/197/300 192/192/192
f 300/197/300 193/198/193 192/192/192
f 207/157/207 301/177/301 296/176/296
f 301/177/301 302/199/302 296/176/296
f 296/176/296 302/199/302 297/193/297
f 302/199/302 303/200/303 297/193/297
f 297/193/297 303/200/303 298/194/298
f 303/200/303 304/201/304 298/194/298
f 298/195/298 304/202/304 299/196/299
f 304/202/304 305/203/305 299/196/299
f 299/196/299 305/203/305 300/197/300
f 305/203/305 306/204/306 300/197/300
f 300/197/300 306/204/306 193/198/193
f 306/204/306 194/30/194 193/198/193
f 208/33/208 166/32/166 301/177/301
f 166/32/166 165/205/165 301/177/301
f 301/177/301 165/205/165 302/199/302
f 165/205/165 164/206/164 302/199/302
f 302/199/302 164/206/164 303/200/303
f 164/206/164 163/207/163 303/200/303
f 303/200/303 163/207/163 304/201/304
f 163/207/163 162/208/162 304/201/304
f 304/202/304 162/209/162 305/203/305
f 162/209/162 161/210/161 305/203/305
f 305/203/305 161/210/161 306/204/306
f 161/210/161 160/211/160 306/204/306
f 306/204/306 160/211/160 194/30/194
f 160/211/160 7/28/7 194/30/194
f 188/180/188 201/43/201 12/45/12
f 189/179/189 307/212/307 188/180/188
f 190/183/190 308/213/308 189/179/189
f 191/187/191 310/214/310 190/183/190
f 192/192/192 313/215/313 191/187/191
f 193/198/193 317/216/317 192/192/192
f 194/30/194 322/217/322 193/198/193
f 188/180/188 307/212/307 201/43/201
f 307/212/307 200/218/200 201/43/201
f 189/179/189 308/213/308 307/212/307
f 308/213/308 309/219/309 307/212/307
f 307/212/307 309/219/309 200/218/200
f 309/219/309 199/220/199 200/218/200
f 190/183/190 310/214/310 308/213/308
f 310/214/310 311/221/311 308/213/308
f 308/213/308 311/221/311 309/219/309
f 311/221/311 312/222/312 309/219/309
f 309/219/309 312/222/312 199/220/199
f 312/223/312 198/51/198 199/49/199
f 191/187/191 313/215/313 310/214/310
f 313/215/313 314/224/314 310/214/310
f 310/214/310 314/224/314 311/221/311
f 314/224/314 315/225/315 311/221/311
f 311/221/311 315/225/315 312/222/312
f 315/225/315 316/226/316 312/222/312
f 312/223/312 316/227/316 198/51/198
f 316/227/316 197/53/197 198/51/198
f 192/192/192 317/216/317 313/215/313
f 317/216/317 318/228/318 313/215/313
f 313/215/313 318/228/318 314/224/314
f 318/228/318 319/229/319 314/224/314
f 314/224/314 319/229/319 315/225/315
f 319/229/319 320/230/320 315/225/315
f 315/225/315 320/230/320 316/226/316
f 320/230/320 321/231/321 316/226/316
f 316/227/316 321/232/321 197/53/197
f 321/232/321 196/55/196 197/53/197
f 193/198/193 322/217/322 317/216/317
f 322/217/322 323/233/323 317/216/317
f 317/216/317 323/233/323 318/228/318
f 323/233/323 324/234/324 318/228/318
f 318/228/318 324/234/324 319/229/319
f 324/234/324 325/235/325 319/229/319
f 319/229/319 325/235/325 320/230/320
f 325/235/325 326/236/326 320/230/320
f 320/230/320 326/236/326 321/231/321
f 326/237/326 327/238/327 321/232/321
f 321/232/321 327/238/327 196/55/196
f 327/238/327 195/42/195 196/55/196
f 194/30/194 159/29/159 322/217/322
f 159/29/159 158/239/158 322/217/322
f 322/217/322 158/239/158 323/233/323
f 158/239/158 157/240/157 323/233/323
f 323/233/323 157/240/157 324/234/324
f 157/240/157 156/241/156 324/234/324
f 324/234/324 156/241/156 325/235/325
f 156/241/156 155/242/155 325/235/325
f 325/235/325 155/242/155 326/236/326
f 155/242/155 154/243/154 326/236/326
f 326/237/326 154/244/154 327/238/327
f 154/244/154 153/245/153 327/238/327
f 327/238/327 153/245/153 195/42/195
f 153/245/153 11/40/11 195/42/195
f 96/246/96 187/41/187 11/40/11
f 95/247/95 328/248/328 96/246/96
f 94/249/94 329/250/329 95/247/95
f 93/251/93 331/252/331 94/249/94
f 92/253/92 334/254/334 93/251/93
f 91/255/91 338/256/338 92/253/92
f 90/27/90 343/257/343 91/255/91
f 96/246/96 328/248/328 187/41/187
f 328/248/328 186/80/186 187/41/187
f 95/247/95 329/250/329 328/248/328
f 329/250/329 330/258/330 328/248/328
f 328/248/328 330/258/330 186/80/186
f 330/258/330 185/81/185 186/80/186
f 94/249/94 331/252/331 329/250/329
f 331/252/331 332/259/332 329/250/329
f 329/250/329 332/259/332 330/258/330
f 332/259/332 333/260/333 330/258/330
f 330/258/330 333/260/333 185/81/185
f 333/260/333 184/82/184 185/81/185
f 93/251/93 334/254/334 331/252/331
f 334/254/334 335/261/335 331/252/331
f 331/252/331 335/261/335 332/259/332
f 335/261/335 336/262/336 332/259/332
f 332/259/332 336/262/336 333/260/333
f 336/262/336 337/263/337 333/260/333
f 333/260/333 337/263/337 184/82/184
f 337/263/337 183/83/183 184/82/184
f 92/253/92 338/256/338 334/254/334
f 338/256/338 339/264/339 334/254/334
f 334/254/334 339/264/339 335/261/335
f 339/264/339 340/265/340 335/261/335
f 335/261/335 340/265/340 336/262/336
f 340/265/340 341/266/341 336/262/336
f 336/262/336 341/266/341 337/263/337
f 341/266/341 342/267/342 337/263/337
f 337/263/337 342/267/342 183/83/183
f 342/267/342 182/84/182 183/83/183
f 91/255/91 343/257/343 338/256/338
f 343/257/343 344/268/344 338/256/338
f 338/256/338 344/268/344 339/264/339
f 344/268/344 345/269/345 339/264/339
f 339/264/339 345/269/345 340/265/340
f 345/269/345 346/270/346 340/265/340
f 340/265/340 346/270/346 341/266/341
f 346/270/346 347/271/347 341/266/341
f 341/266/341 347/271/347 342/267/342
f 347/271/347 348/272/348 342/267/342
f 342/267/342 348/272/348 182/84/182
f 348/272/348 181/85/181 182/84/182
f 90/27/90 145/22/145 343/257/343
f 145/22/145 144/273/144 343/257/343
f 343/257/343 144/273/144 344/268/344
f 144/273/144 143/274/143 344/268/344
f 344/268/344 143/274/143 345/269/345
f 143/274/143 142/275/142 345/269/345
f 345/269/345 142/275/142 346/270/346
f 142/275/142 141/276/141 346/270/346
f 346/270/346 141/276/141 347/271/347
f 141/276/141 140/277/140 347/271/347
f 347/271/347 140/277/140 348/272/348
f 140/277/140 139/278/139 348/272/348
f 348/272/348 139/278/139 181/85/181
f 139/278/139 10/37/10 181/85/181
f 152/279/152 180/38/180 10/37/10
f 151/280/151 349/281/349 152/282/152
f 150/283/150 350/284/350 151/280/151
f 149/285/149 352/286/352 150/283/150
f 148/287/148 355/288/355 149/285/149
f 147/289/147 359/290/359 148/287/148
f 146/26/146 364/291/364 147/289/147
f 152/282/152 349/281/349 180/124/180
f 349/281/349 179/125/179 180/124/180
f 151/280/151 350/284/350 349/281/349
f 350/284/350 351/292/351 349/281/349
f 349/281/349 351/292/351 179/125/179
f 351/292/351 178/126/178 179/125/179
f 150/283/150 352/286/352 350/284/350
f 352/286/352 353/293/353 350/284/350
f 350/284/350 353/293/353 351/292/351
f 353/293/353 354/294/354 351/292/351
f 351/292/351 354/294/354 178/126/178
f 354/294/354 177/127/177 178/126/178
f 149/285/149 355/288/355 352/286/352
f 355/288/355 356/295/356 352/286/352
f 352/286/352 356/295/356 353/293/353
f 356/295/356 357/296/357 353/293/353
f 353/293/353 357/296/357 354/294/354
f 357/296/357 358/297/358 354/294/354
f 354/294/354 358/297/358 177/127/177
f 358/297/358 176/128/176 177/127/177
f 148/287/148 359/290/359 355/288/355
f 359/290/359 360/298/360 355/288/355
f 355/288/355 360/298/360 356/295/356
f 360/298/360 361/299/361 356/295/356
f 356/295/356 361/299/361 357/296/357
f 361/299/361 362/300/362 357/296/357
f 357/296/357 362/300/362 358/297/358
f 362/300/362 363/301/363 358/297/358
f 358/297/358 363/301/363 176/128/176
f 363/301/363 175/129/175 176/128/176
f 147/289/147 364/291/364 359/290/359
f 364/291/364 365/302/365 359/290/359
f 359/290/359 365/302/365 360/298/360
f 365/302/365 366/303/366 360/298/360
f 360/298/360 366/303/366 361/299/361
f 366/303/366 367/304/367 361/299/361
f 361/299/361 367/304/367 362/300/362
f 367/304/367 368/305/368 362/300/362
f 362/300/362 368/305/368 363/301/363
f 368/305/368 369/306/369 363/301/363
f 363/301/363 369/306/369 175/129/175
f 369/306/369 174/130/174 175/129/175
f 146/26/146 131/19/131 364/291/364
f 131/19/131 130/307/130 364/291/364
f 364/291/364 130/307/130 365/302/365
f 130/307/130 129/308/129 365/302/365
f 365/302/365 129/308/129 366/303/366
f 129/308/129 128/309/128 366/303/366
f 366/303/366 128/309/128 367/304/367
f 128/309/128 127/310/127 367/304/367
f 367/304/367 127/310/127 368/305/368
f 127/310/127 126/311/126 368/305/368
f 368/305/368 126/311/126 369/306/369
f 126/311/126 125/312/125 369/306/369
f 369/306/369 125/312/125 174/130/174
f 125/312/125 9/34/9 174/130/174
f 138/313/138 173/35/173 9/34/9
f 137/314/137 370/315/370 138/313/138
f 136/316/136 371/317/371 137/314/137
f 135/318/135 373/319/373 136/316/136
f 134/320/134 376/321/376 135/318/135
f 133/322/133 380/323/380 134/324/134
f 132/25/132 385/325/385 133/322/133
f 138/313/138 370/315/370 173/35/173
f 370/315/370 172/164/172 173/35/173
f 137/314/137 371/317/371 370/315/370
f 371/317/371 372/326/372 370/315/370
f 370/315/370 372/326/372 172/164/172
f 372/326/372 171/165/171 172/164/172
f 136/316/136 373/319/373 371/317/371
f 373/319/373 374/327/374 371/317/371
f 371/317/371 374/327/374 372/326/372
f 374/327/374 375/328/375 372/326/372
f 372/326/372 375/328/375 171/165/171
f 375/329/375 170/167/170 171/166/171
f 135/318/135 376/321/376 373/319/373
f 376/330/376 377/331/377 373/332/373
f 373/332/373 377/331/377 374/333/374
f 377/331/377 378/334/378 374/333/374
f 374/333/374 378/334/378 375/329/375
f 378/334/378 379/335/379 375/329/375
f 375/329/375 379/335/379 170/167/170
f 379/335/379 169/168/169 170/167/170
f 134/324/134 380/323/380 376/330/376
f 380/323/380 381/336/381 376/330/376
f 376/330/376 381/336/381 377/331/377
f 381/336/381 382/337/382 377/331/377
f 377/331/377 382/337/382 378/334/378
f 382/337/382 383/338/383 378/334/378
f 378/334/378 383/338/383 379/335/379
f 383/338/383 384/339/384 379/335/379
f 379/335/379 384/339/384 169/168/169
f 384/339/384 168/169/168 169/168/169
f 133/322/133 385/325/385 380/323/380
f 385/325/385 386/340/386 380/323/380
f 380/323/380 386/340/386 381/336/381
f 386/340/386 387/341/387 381/336/381
f 381/336/381 387/341/387 382/337/382
f 387/341/387 388/342/388 382/337/382
f 382/337/382 388/342/388 383/338/383
f 388/342/388 389/343/389 383/338/383
f 383/338/383 389/343/389 384/339/384
f 389/343/389 390/344/390 384/339/384
f 384/339/384 390/344/390 168/169/168
f 390/344/390 167/170/167 168/169/168
f 132/25/132 117/16/117 385/325/385
f 117/16/117 116/345/116 385/325/385
f 385/325/385 116/345/116 386/340/386
f 116/345/116 115/346/115 386/340/386
f 386/340/386 115/346/115 387/341/387
f 115/346/115 114/347/114 387/341/387
f 387/341/387 114/347/114 388/342/388
f 114/347/114 113/348/113 388/342/388
f 388/342/388 113/348/113 389/343/389
f 113/348/113 112/349/112 389/343/389
f 389/343/389 112/349/112 390/344/390
f 112/349/112 111/350/111 390/344/390
f 390/344/390 111/350/111 167/170/167
f 111/350/111 8/31/8 167/170/167
f 124/351/124 166/32/166 8/31/8
f 123/352/123 391/353/391 124/351/124
f 122/354/122 392/355/392 123/352/123
f 121/356/121 394/357/394 122/354/122
f 120/358/120 397/359/397 121/356/121
f 119/360/119 401/361/401 120/358/120
f 118/24/118 406/362/406 119/360/119
f 124/351/124 391/353/391 166/32/166
f 391/353/391 165/205/165 166/32/166
f 123/352/123 392/355/392 391/353/391
f 392/355/392 393/363/393 391/353/391
f 391/353/391 393/363/393 165/205/165
f 393/363/393 164/206/164 165/205/165
f 122/354/122 394/357/394 392/355/392
f 394/357/394 395/364/395 392/355/392
f 392/355/392 395/364/395 393/363/393
f 395/364/395 396/365/396 393/363/393
f 393/363/393 396/365/396 164/206/164
f 396/365/396 163/207/163 164/206/164
f 121/356/121 397/359/397 394/357/394
f 397/359/397 398/366/398 394/357/394
f 394/357/394 398/366/398 395/364/395
f 398/366/398 399/367/399 395/364/395
f 395/364/395 399/367/399 396/365/396
f 399/367/399 400/368/400 396/365/396
f 396/365/396 400/368/400 163/207/163
f 400/368/400 162/208/162 163/207/163
f 120/358/120 401/361/401 397/359/397
f 401/361/401 402/369/402 397/359/397
f 397/359/397 402/369/402 398/366/398
f 402/369/402 403/370/403 398/366/398
f 398/366/398 403/370/403 399/367/399
f 403/370/403 404/371/404 399/367/399
f 399/367/399 404/371/404 400/368/400
f 404/372/404 405/373/405 400/374/400
f 400/374/400 405/373/405 162/209/162
f 405/373/405 161/210/161 162/209/162
f 119/360/119 406/362/406 401/361/401
f 406/362/406 407/375/407 401/361/401
f 401/361/401 407/375/407 402/369/402
f 407/375/407 408/376/408 402/369/402
f 402/369/402 408/376/408 403/370/403
f 408/377/408 409/378/409 403/379/403
f 403/379/403 409/378/409 404/372/404
f 409/378/409 410/380/410 404/372/404
f 404/372/404 410/380/410 405/373/405
f 410/380/410 411/381/411 405/373/405
f 405/373/405 411/381/411 161/210/161
f 411/381/411 160/211/160 161/210/161
f 118/24/118 103/13/103 406/362/406
f 103/13/103 102/382/102 406/362/406
f 406/362/406 102/382/102 407/375/407
f 102/383/102 101/384/101 407/385/407
f 407/385/407 101/384/101 408/377/408
f 101/384/101 100/386/100 408/377/408
f 408/377/408 100/386/100 409/378/409
f 100/386/100 99/387/99 409/378/409
f 409/378/409 99/387/99 410/380/410
f 99/387/99 98/388/98 410/380/410
f 410/380/410 98/388/98 411/381/411
f 98/388/98 97/389/97 411/381/411
f 411/381/411 97/389/97 160/211/160
f 97/389/97 7/28/7 160/211/160
f 110/390/110 159/29/159 7/28/7
f 109/391/109 412/392/412 110/390/110
f 108/393/108 413/394/413 109/391/109
f 107/395/107 415/396/415 108/393/108
f 106/397/106 418/398/418 107/395/107
f 105/399/105 422/400/422 106/397/106
f 104/23/104 427/401/427 105/399/105
f 110/390/110 412/392/412 159/29/159
f 412/392/412 158/239/158 159/29/159
f 109/391/109 413/394/413 412/392/412
f 413/394/413 414/402/414 412/392/412
f 412/392/412 414/402/414 158/239/158
f 414/402/414 157/240/157 158/239/158
f 108/393/108 415/396/415 413/394/413
f 415/396/415 416/403/416 413/394/413
f 413/394/413 416/403/416 414/402/414
f 416/403/416 417/404/417 414/402/414
f 414/402/414 417/404/417 157/240/157
f 417/404/417 156/241/156 157/240/157
f 107/395/107 418/398/418 415/396/415
f 418/398/418 419/405/419 415/396/415
f 415/396/415 419/405/419 416/403/416
f 419/405/419 420/406/420 416/403/416
f 416/403/416 420/406/420 417/404/417
f 420/406/420 421/407/421 417/404/417
f 417/404/417 421/407/421 156/241/156
f 421/407/421 155/242/155 156/241/156
f 106/397/106 422/400/422 418/398/418
f 422/400/422 423/408/423 418/398/418
f 418/398/418 423/408/423 419/405/419
f 423/408/423 424/409/424 419/405/419
f 419/405/419 424/409/424 420/406/420
f 424/409/424 425/410/425 420/406/420
f 420/406/420 425/410/425 421/407/421
f 425/410/425 426/411/426 421/407/421
f 421/407/421 426/411/426 155/242/155
f 426/411/426 154/243/154 155/242/155
f 105/399/105 427/401/427 422/400/422
f 427/401/427 428/412/428 422/400/422
f 422/400/422 428/412/428 423/408/423
f 428/412/428 429/413/429 423/408/423
f 423/408/423 429/413/429 424/409/424
f 429/413/429 430/414/430 424/409/424
f 424/409/424 430/414/430 425/410/425
f 430/414/430 431/415/431 425/410/425
f 425/410/425 431/415/431 426/411/426
f 431/415/431 432/416/432 426/411/426
f 426/411/426 432/416/432 154/243/154
f 432/417/432 153/245/153 154/244/154
f 104/23/104 89/10/89 427/401/427
f 89/10/89 88/418/88 427/401/427
f 427/401/427 88/418/88 428/412/428
f 88/418/88 87/419/87 428/412/428
f 428/412/428 87/419/87 429/413/429
f 87/419/87 86/420/86 429/413/429
f 429/413/429 86/420/86 430/414/430
f 86/420/86 85/421/85 430/414/430
f 430/414/430 85/421/85 431/415/431
f 85/422/85 84/423/84 431/424/431
f 431/424/431 84/423/84 432/417/432
f 84/423/84 83/425/83 432/417/432
f 432/417/432 83/425/83 153/245/153
f 83/425/83 11/40/11 153/245/153
f 139/278/139 152/279/152 10/37/10
f 140/277/140 433/426/433 139/278/139
f 141/276/141 434/427/434 140/277/140
f 142/275/142 436/428/436 141/276/141
f 143/274/143 439/429/439 142/275/142
f 144/273/144 443/430/443 143/274/143
f 145/22/145 448/431/448 144/273/144
f 139/278/139 433/426/433 152/279/152
f 433/426/433 151/432/151 152/279/152
f 140/277/140 434/427/434 433/426/433
f 434/427/434 435/433/435 433/426/433
f 433/426/433 435/433/435 151/432/151
f 435/434/435 150/283/150 151/280/151
f 141/276/141 436/428/436 434/427/434
f 436/428/436 437/435/437 434/427/434
f 434/427/434 437/435/437 435/433/435
f 437/435/437 438/436/438 435/433/435
f 435/434/435 438/437/438 150/283/150
f 438/437/438 149/285/149 150/283/150
f 142/275/142 439/429/439 436/428/436
f 439/429/439 440/438/440 436/428/436
f 436/428/436 440/438/440 437/435/437
f 440/438/440 441/439/441 437/435/437
f 437/435/437 441/439/441 438/436/438
f 441/440/441 442/441/442 438/437/438
f 438/437/438 442/441/442 149/285/149
f 442/441/442 148/287/148 149/285/149
f 143/274/143 443/430/443 439/429/439
f 443/430/443 444/442/444 439/429/439
f 439/429/439 444/442/444 440/438/440
f 444/442/444 445/443/445 440/438/440
f 440/438/440 445/443/445 441/439/441
f 445/443/445 446/444/446 441/439/441
f 441/440/441 446/445/446 442/441/442
f 446/445/446 447/446/447 442/441/442
f 442/441/442 447/446/447 148/287/148
f 447/446/447 147/289/147 148/287/148
f 144/273/144 448/431/448 443/430/443
f 448/431/448 449/447/449 443/430/443
f 443/430/443 449/447/449 444/442/444
f 449/447/449 450/448/450 444/442/444
f 444/442/444 450/448/450 445/443/445
f 450/448/450 451/449/451 445/443/445
f 445/443/445 451/449/451 446/444/446
f 451/450/451 452/451/452 446/452/446
f 446/445/446 452/453/452 447/446/447
f 452/453/452 453/454/453 447/446/447
f 447/446/447 453/454/453 147/289/147
f 453/454/453 146/26/146 147/289/147
f 145/22/145 82/21/82 448/431/448
f 82/21/82 81/455/81 448/431/448
f 448/431/448 81/455/81 449/447/449
f 81/455/81 80/456/80 449/447/449
f 449/447/449 80/456/80 450/448/450
f 80/457/80 79/458/79 450/459/450
f 450/459/450 79/458/79 451/450/451
f 79/458/79 78/460/78 451/450/451
f 451/450/451 78/460/78 452/451/452
f 78/460/78 77/461/77 452/451/452
f 452/451/452 77/461/77 453/462/453
f 77/461/77 76/463/76 453/462/453
f 453/454/453 76/464/76 146/26/146
f 76/464/76 5/17/5 146/26/146
f 125/312/125 138/313/138 9/34/9
f 126/311/126 454/465/454 125/312/125
f 127/310/127 455/466/455 126/311/126
f 128/309/128 457/467/457 127/310/127
f 129/308/129 460/468/460 128/309/128
f 130/307/130 464/469/464 129/308/129
f 131/19/131 469/470/469 130/307/130
f 125/312/125 454/465/454 138/313/138
f 454/465/454 137/314/137 138/313/138
f 126/311/126 455/466/455 454/465/454
f 455/466/455 456/471/456 454/465/454
f 454/465/454 456/471/456 137/314/137
f 456/471/456 136/316/136 137/314/137
f 127/310/127 457/467/457 455/466/455
f 457/467/457 458/472/458 455/466/455
f 455/466/455 458/472/458 456/471/456
f 458/472/458 459/473/459 456/471/456
f 456/471/456 459/473/459 136/316/136
f 459/473/459 135/318/135 136/316/136
f 128/309/128 460/468/460 457/467/457
f 460/468/460 461/474/461 457/467/457
f 457/467/457 461/474/461 458/472/458
f 461/474/461 462/475/462 458/472/458
f 458/472/458 462/475/462 459/473/459
f 462/475/462 463/476/463 459/473/459
f 459/473/459 463/476/463 135/318/135
f 463/476/463 134/320/134 135/318/135
f 129/308/129 464/469/464 460/468/460
f 464/469/464 465/477/465 460/468/460
f 460/468/460 465/477/465 461/474/461
f 465/477/465 466/478/466 461/474/461
f 461/474/461 466/478/466 462/475/462
f 466/478/466 467/479/467 462/475/462
f 462/475/462 467/479/467 463/476/463
f 467/479/467 468/480/468 463/476/463
f 463/476/463 468/480/468 134/320/134
f 468/481/468 133/322/133 134/324/134
f 130/307/130 469/470/469 464/469/464
f 469/470/469 470/482/470 464/469/464
f 464/469/464 470/482/470 465/477/465
f 470/482/470 471/483/471 465/477/465
f 465/477/465 471/483/471 466/478/466
f 471/483/471 472/484/472 466/478/466
f 466/478/466 472/484/472 467/479/467
f 472/484/472 473/485/473 467/479/467
f 467/479/467 473/485/473 468/480/468
f 473/485/473 474/486/474 468/480/468
f 468/481/468 474/487/474 133/322/133
f 474/487/474 132/25/132 133/322/133
f 131/19/131 75/18/75 469/470/469
f 75/18/75 74/488/74 469/470/469
f 469/470/469 74/488/74 470/482/470
f 74/488/74 73/489/73 470/482/470
f 470/482/470 73/489/73 471/483/471
f 73/489/73 72/490/72 471/483/471
f 471/483/471 72/490/72 472/484/472
f 72/490/72 71/491/71 472/484/472
f 472/484/472 71/491/71 473/485/473
f 71/491/71 70/492/70 473/485/473
f 473/493/473 70/494/70 474/487/474
f 70/494/70 69/495/69 474/487/474
f 474/487/474 69/495/69 132/25/132
f 69/495/69 4/14/4 132/25/132
f 111/350/111 124/351/124 8/31/8
f 112/349/112 475/496/475 111/350/111
f 113/348/113 476/497/476 112/349/112
f 114/347/114 478/498/478 113/348/113
f 115/346/115 481/499/481 114/347/114
f 116/345/116 485/500/485 115/346/115
f 117/16/117 490/501/490 116/345/116
f 111/350/111 475/496/475 124/351/124
f 475/496/475 123/352/123 124/351/124
f 112/349/112 476/497/476 475/496/475
f 476/497/476 477/502/477 475/496/475
f 475/496/475 477/502/477 123/352/123
f 477/502/477 122/354/122 123/352/123
f 113/348/113 478/498/478 476/497/476
f 478/498/478 479/503/479 476/497/476
f 476/497/476 479/503/479 477/502/477
f 479/503/479 480/504/480 477/502/477
f 477/502/477 480/504/480 122/354/122
f 480/504/480 121/356/121 122/354/122
f 114/347/114 481/499/481 478/498/478
f 481/499/481 482/505/482 478/498/478
f 478/498/478 482/505/482 479/503/479
f 482/505/482 483/506/483 479/503/479
f 479/503/479 483/506/483 480/504/480
f 483/506/483 484/507/484 480/504/480
f 480/504/480 484/507/484 121/356/121
f 484/507/484 120/358/120 121/356/121
f 115/346/115 485/500/485 481/499/481
f 485/500/485 486/508/486 481/499/481
f 481/499/481 486/508/486 482/505/482
f 486/508/486 487/509/487 482/505/482
f 482/505/482 487/509/487 483/506/483
f 487/509/487 488/510/488 483/506/483
f 483/506/483 488/510/488 484/507/484
f 488/510/488 489/511/489 484/507/484
f 484/507/484 489/511/489 120/358/120
f 489/511/489 119/360/119 120/358/120
f 116/345/116 490/501/490 485/500/485
f 490/501/490 491/512/491 485/500/485
f 485/500/485 491/512/491 486/508/486
f 491/512/491 492/513/492 486/508/486
f 486/508/486 492/513/492 487/509/487
f 492/513/492 493/514/493 487/509/487
f 487/509/487 493/514/493 488/510/488
f 493/514/493 494/515/494 488/510/488
f 488/510/488 494/515/494 489/511/489
f 494/515/494 495/516/495 489/511/489
f 489/511/489 495/516/495 119/360/119
f 495/516/495 118/24/118 119/360/119
f 117/16/117 61/15/61 490/501/490
f 61/15/61 60/517/60 490/501/490
f 490/501/490 60/517/60 491/512/491
f 60/517/60 59/518/59 491/512/491
f 491/512/491 59/518/59 492/513/492
f 59/518/59 58/519/58 492/513/492
f 492/513/492 58/519/58 493/514/493
f 58/519/58 57/520/57 493/514/493
f 493/514/493 57/520/57 494/515/494
f 57/520/57 56/521/56 494/515/494
f 494/515/494 56/521/56 495/516/495
f 56/521/56 55/522/55 495/516/495
f 495/516/495 55/522/55 118/24/118
f 55/522/55 3/11/3 118/24/118
f 97/389/97 110/390/110 7/28/7
f 98/388/98 496/523/496 97/389/97
f 99/387/99 497/524/497 98/388/98
f 100/386/100 499/525/499 99/387/99
f 101/384/101 502/526/502 100/386/100
f 102/383/102 506/527/506 101/384/101
f 103/528/103 511/529/511 102/383/102
f 97/389/97 496/523/496 110/390/110
f 496/523/496 109/391/109 110/390/110
f 98/388/98 497/524/497 496/523/496
f 497/524/497 498/530/498 496/523/496
f 496/523/496 498/530/498 109/391/109
f 498/530/498 108/393/108 109/391/109
f 99/387/99 499/525/499 497/524/497
f 499/525/499 500/531/500 497/524/497
f 497/524/497 500/531/500 498/530/498
f 500/531/500 501/532/501 498/530/498
f 498/530/498 501/532/501 108/393/108
f 501/532/501 107/395/107 108/393/108
f 100/386/100 502/526/502 499/525/499
f 502/526/502 503/533/503 499/525/499
f 499/525/499 503/533/503 500/531/500
f 503/533/503 504/534/504 500/531/500
f 500/531/500 504/534/504 501/532/501
f 504/534/504 505/535/505 501/532/501
f 501/532/501 505/535/505 107/395/107
f 505/535/505 106/397/106 107/395/107
f 101/384/101 506/527/506 502/526/502
f 506/527/506 507/536/507 502/526/502
f 502/526/502 507/536/507 503/533/503
f 507/536/507 508/537/508 503/533/503
f 503/533/503 508/537/508 504/534/504
f 508/537/508 509/538/509 504/534/504
f 504/534/504 509/538/509 505/535/505
f 509/538/509 510/539/510 505/535/505
f 505/535/505 510/539/510 106/397/106
f 510/539/510 105/399/105 106/397/106
f 102/383/102 511/529/511 506/527/506
f 511/529/511 512/540/512 506/527/506
f 506/527/506 512/540/512 507/536/507
f 512/540/512 513/541/513 507/536/507
f 507/536/507 513/541/513 508/537/508
f 513/541/513 514/542/514 508/537/508
f 508/537/508 514/542/514 509/538/509
f 514/542/514 515/543/515 509/538/509
f 509/538/509 515/543/515 510/539/510
f 515/543/515 516/544/516 510/539/510
f 510/539/510 516/544/516 105/399/105
f 516/544/516 104/23/104 105/399/105
f 103/528/103 33/545/33 511/529/511
f 33/545/33 32/546/32 511/529/511
f 511/529/511 32/546/32 512/540/512
f 32/546/32 31/547/31 512/540/512
f 512/540/512 31/547/31 513/541/513
f 31/547/31 30/548/30 513/541/513
f 513/541/513 30/548/30 514/542/514
f 30/548/30 29/549/29 514/542/514
f 514/542/514 29/549/29 515/543/515
f 29/549/29 28/550/28 515/543/515
f 515/543/515 28/550/28 516/544/516
f 28/550/28 27/551/27 516/544/516
f 516/544/516 27/551/27 104/23/104
f 27/551/27 2/4/2 104/23/104
f 83/425/83 96/246/96 11/40/11
f 84/423/84 517/552/517 83/425/83
f 85/422/85 518/553/518 84/423/84
f 86/420/86 520/554/520 85/421/85
f 87/419/87 523/555/523 86/420/86
f 88/418/88 527/556/527 87/419/87
f 89/10/89 532/557/532 88/418/88
f 83/425/83 517/552/517 96/246/96
f 517/552/517 95/247/95 96/246/96
f 84/423/84 518/553/518 517/552/517
f 518/553/518 519/558/519 517/552/517
f 517/552/517 519/558/519 95/247/95
f 519/558/519 94/249/94 95/247/95
f 85/422/85 520/559/520 518/553/518
f 520/559/520 521/560/521 518/553/518
f 518/553/518 521/560/521 519/558/519
f 521/560/521 522/561/522 519/558/519
f 519/558/519 522/561/522 94/249/94
f 522/561/522 93/251/93 94/249/94
f 86/420/86 523/555/523 520/554/520
f 523/562/523 524/563/524 520/559/520
f 520/559/520 524/563/524 521/560/521
f 524/563/524 525/564/525 521/560/521
f 521/560/521 525/564/525 522/561/522
f 525/564/525 526/565/526 522/561/522
f 522/561/522 526/565/526 93/251/93
f 526/565/526 92/253/92 93/251/93
f 87/419/87 527/556/527 523/555/523
f 527/556/527 528/566/528 523/555/523
f 523/562/523 528/567/528 524/563/524
f 528/567/528 529/568/529 524/563/524
f 524/563/524 529/568/529 525/564/525
f 529/568/529 530/569/530 525/564/525
f 525/564/525 530/569/530 526/565/526
f 530/569/530 531/570/531 526/565/526
f 526/565/526 531/570/531 92/253/92
f 531/570/531 91/255/91 92/253/92
f 88/418/88 532/557/532 527/556/527
f 532/557/532 533/571/533 527/556/527
f 527/556/527 533/571/533 528/566/528
f 533/571/533 534/572/534 528/566/528
f 528/567/528 534/573/534 529/568/529
f 534/573/534 535/574/535 529/568/529
f 529/568/529 535/574/535 530/569/530
f 535/574/535 536/575/536 530/569/530
f 530/569/530 536/575/536 531/570/531
f 536/575/536 537/576/537 531/570/531
f 531/570/531 537/576/537 91/255/91
f 537/576/537 90/27/90 91/255/91
f 89/10/89 40/6/40 532/557/532
f 40/6/40 39/577/39 532/557/532
f 532/557/532 39/577/39 533/571/533
f 39/577/39 38/578/38 533/571/533
f 533/571/533 38/578/38 534/572/534
f 38/579/38 37/580/37 534/573/534
f 534/573/534 37/580/37 535/574/535
f 37/580/37 36/581/36 535/574/535
f 535/574/535 36/581/36 536/575/536
f 36/581/36 35/582/35 536/575/536
f 536/575/536 35/582/35 537/576/537
f 35/582/35 34/583/34 537/576/537
f 537/576/537 34/583/34 90/27/90
f 34/583/34 6/20/6 90/27/90
f 47/584/47 82/21/82 6/20/6
f 46/585/46 538/586/538 47/584/47
f 45/587/45 539/588/539 46/589/46
f 44/590/44 541/591/541 45/587/45
f 43/592/43 544/593/544 44/590/44
f 42/594/42 548/595/548 43/592/43
f 41/9/41 553/596/553 42/594/42
f 47/584/47 538/586/538 82/21/82
f 538/586/538 81/455/81 82/21/82
f 46/585/46 539/597/539 538/586/538
f 539/588/539 540/598/540 538/599/538
f 538/586/538 540/600/540 81/455/81
f 540/600/540 80/456/80 81/455/81
f 45/587/45 541/591/541 539/588/539
f 541/591/541 542/601/542 539/588/539
f 539/588/539 542/601/542 540/598/540
f 542/601/542 543/602/543 540/598/540
f 540/598/540 543/602/543 80/457/80
f 543/602/543 79/458/79 80/457/80
f 44/590/44 544/593/544 541/591/541
f 544/593/544 545/603/545 541/591/541
f 541/591/541 545/603/545 542/601/542
f 545/603/545 546/604/546 542/601/542
f 542/601/542 546/604/546 543/602/543
f 546/604/546 547/605/547 543/602/543
f 543/602/543 547/605/547 79/458/79
f 547/605/547 78/460/78 79/458/79
f 43/592/43 548/595/548 544/593/544
f 548/595/548 549/606/549 544/593/544
f 544/593/544 549/606/549 545/603/545
f 549/606/549 550/607/550 545/603/545
f 545/603/545 550/607/550 546/604/546
f 550/607/550 551/608/551 546/604/546
f 546/604/546 551/608/551 547/605/547
f 551/608/551 552/609/552 547/605/547
f 547/605/547 552/609/552 78/460/78
f 552/609/552 77/461/77 78/460/78
f 42/594/42 553/596/553 548/595/548
f 553/596/553 554/610/554 548/595/548
f 548/595/548 554/610/554 549/606/549
f 554/610/554 555/611/555 549/606/549
f 549/606/549 555/611/555 550/607/550
f 555/611/555 556/612/556 550/607/550
f 550/607/550 556/612/556 551/608/551
f 556/612/556 557/613/557 551/608/551
f 551/608/551 557/613/557 552/609/552
f 557/613/557 558/614/558 552/609/552
f 552/609/552 558/614/558 77/461/77
f 558/614/558 76/463/76 77/461/77
f 41/9/41 68/8/68 553/596/553
f 68/8/68 67/615/67 553/596/553
f 553/596/553 67/615/67 554/610/554
f 67/615/67 66/616/66 554/610/554
f 554/610/554 66/616/66 555/611/555
f 66/616/66 65/617/65 555/611/555
f 555/611/555 65/617/65 556/612/556
f 65/617/65 64/618/64 556/612/556
f 556/612/556 64/618/64 557/613/557
f 64/618/64 63/619/63 557/613/557
f 557/613/557 63/619/63 558/614/558
f 63/619/63 62/620/62 558/614/558
f 558/614/558 62/620/62 76/463/76
f 62/620/62 5/621/5 76/463/76
f 62/622/62 75/18/75 5/17/5
f 63/619/63 559/623/559 62/620/62
f 64/618/64 560/624/560 63/619/63
f 65/617/65 562/625/562 64/618/64
f 66/616/66 565/626/565 65/617/65
f 67/615/67 569/627/569 66/616/66
f 68/8/68 574/628/574 67/615/67
f 62/620/62 559/623/559 75/629/75
f 559/630/559 74/488/74 75/18/75
f 63/619/63 560/624/560 559/623/559
f 560/624/560 561/631/561 559/623/559
f 559/623/559 561/631/561 74/632/74
f 561/633/561 73/489/73 74/488/74
f 64/618/64 562/625/562 560/624/560
f 562/625/562 563/634/563 560/624/560
f 560/624/560 563/634/563 561/631/561
f 563/634/563 564/635/564 561/631/561
f 561/631/561 564/635/564 73/636/73
f 564/637/564 72/490/72 73/489/73
f 65/617/65 565/626/565 562/625/562
f 565/626/565 566/638/566 562/625/562
f 562/625/562 566/638/566 563/634/563
f 566/638/566 567/639/567 563/634/563
f 563/634/563 567/639/567 564/635/564
f 567/639/567 568/640/568 564/635/564
f 564/635/564 568/640/568 72/641/72
f 568/642/568 71/491/71 72/490/72
f 66/616/66 569/627/569 565/626/565
f 569/627/569 570/643/570 565/626/565
f 565/626/565 570/643/570 566/638/566
f 570/643/570 571/644/571 566/638/566
f 566/638/566 571/644/571 567/639/567
f 571/644/571 572/645/572 567/639/567
f 567/639/567 572/645/572 568/640/568
f 572/645/572 573/646/573 568/640/568
f 568/640/568 573/646/573 71/647/71
f 573/648/573 70/492/70 71/491/71
f 67/615/67 574/628/574 569/627/569
f 574/628/574 575/649/575 569/627/569
f 569/627/569 575/649/575 570/643/570
f 575/649/575 576/650/576 570/643/570
f 570/643/570 576/650/576 571/644/571
f 576/650/576 577/651/577 571/644/571
f 571/644/571 577/651/577 572/645/572
f 577/651/577 578/652/578 572/645/572
f 572/645/572 578/652/578 573/646/573
f 578/653/578 579/654/579 573/655/573
f 573/655/573 579/654/579 70/494/70
f 579/654/579 69/495/69 70/494/70
f 68/8/68 54/7/54 574/628/574
f 54/7/54 53/656/53 574/628/574
f 574/628/574 53/656/53 575/649/575
f 53/656/53 52/657/52 575/649/575
f 575/649/575 52/657/52 576/650/576
f 52/657/52 51/658/51 576/650/576
f 576/650/576 51/658/51 577/651/577
f 51/658/51 50/659/50 577/651/577
f 577/651/577 50/659/50 578/652/578
f 50/660/50 49/661/49 578/653/578
f 578/653/578 49/661/49 579/654/579
f 49/661/49 48/662/48 579/654/579
f 579/654/579 48/662/48 69/495/69
f 48/662/48 4/14/4 69/495/69
f 48/662/48 61/15/61 4/14/4
f 49/661/49 580/663/580 48/662/48
f 50/660/50 581/664/581 49/661/49
f 51/658/51 583/665/583 50/659/50
f 52/657/52 586/666/586 51/658/51
f 53/656/53 590/667/590 52/657/52
f 54/7/54 595/668/595 53/656/53
f 48/662/48 580/663/580 61/15/61
f 580/663/580 60/517/60 61/15/61
f 49/661/49 581/664/581 580/663/580
f 581/664/581 582/669/582 580/663/580
f 580/663/580 582/669/582 60/517/60
f 582/669/582 59/518/59 60/517/60
f 50/660/50 583/670/583 581/664/581
f 583/670/583 584/671/584 581/664/581
f 581/664/581 584/671/584 582/669/582
f 584/671/584 585/672/585 582/669/582
f 582/669/582 585/672/585 59/518/59
f 585/672/585 58/519/58 59/518/59
f 51/658/51 586/666/586 583/665/583
f 586/673/586 587/674/587 583/670/583
f 583/670/583 587/674/587 584/671/584
f 587/674/587 588/675/588 584/671/584
f 584/671/584 588/675/588 585/672/585
f 588/675/588 589/676/589 585/672/585
f 585/672/585 589/676/589 58/519/58
f 589/676/589 57/520/57 58/519/58
f 52/657/52 590/667/590 586/666/586
f 590/667/590 591/677/591 586/666/586
f 586/666/586 591/677/591 587/678/587
f 591/679/591 592/680/592 587/674/587
f 587/674/587 592/680/592 588/675/588
f 592/680/592 593/681/593 588/675/588
f 588/675/588 593/681/593 589/676/589
f 593/681/593 594/682/594 589/676/589
f 589/676/589 594/682/594 57/520/57
f 594/682/594 56/521/56 57/520/57
f 53/656/53 595/668/595 590/667/590
f 595/668/595 596/683/596 590/667/590
f 590/667/590 596/683/596 591/677/591
f 596/683/596 597/684/597 591/677/591
f 591/679/591 597/685/597 592/680/592
f 597/685/597 598/686/598 592/680/592
f 592/680/592 598/686/598 593/681/593
f 598/686/598 599/687/599 593/681/593
f 593/681/593 599/687/599 594/682/594
f 599/687/599 600/688/600 594/682/594
f 594/682/594 600/688/600 56/521/56
f 600/688/600 55/522/55 56/521/56
f 54/7/54 19/3/19 595/668/595
f 19/3/19 18/689/18 595/668/595
f 595/668/595 18/689/18 596/683/596
f 18/689/18 17/690/17 596/683/596
f 596/683/596 17/690/17 597/684/597
f 17/690/17 16/691/16 597/684/597
f 597/685/597 16/692/16 598/686/598
f 16/692/16 15/693/15 598/686/598
f 598/686/598 15/693/15 599/687/599
f 15/693/15 14/694/14 599/687/599
f 599/687/599 14/694/14 600/688/600
f 14/694/14 13/695/13 600/688/600
f 600/688/600 13/695/13 55/522/55
f 13/695/13 3/11/3 55/522/55
f 34/583/34 47/584/47 6/20/6
f 35/582/35 601/696/601 34/583/34
f 36/581/36 602/697/602 35/582/35
f 37/580/37 604/698/604 36/581/36
f 38/579/38 607/699/607 37/580/37
f 39/577/39 611/700/611 38/578/38
f 40/6/40 616/701/616 39/577/39
f 34/583/34 601/696/601 47/584/47
f 601/696/601 46/585/46 47/584/47
f 35/582/35 602/697/602 601/696/601
f 602/697/602 603/702/603 601/696/601
f 601/696/601 603/702/603 46/585/46
f 603/703/603 45/587/45 46/589/46
f 36/581/36 604/698/604 602/697/602
f 604/698/604 605/704/605 602/697/602
f 602/697/602 605/704/605 603/702/603
f 605/705/605 606/706/606 603/703/603
f 603/703/603 606/706/606 45/587/45
f 606/706/606 44/590/44 45/587/45
f 37/580/37 607/699/607 604/698/604
f 607/699/607 608/707/608 604/698/604
f 604/698/604 608/707/608 605/704/605
f 608/708/608 609/709/609 605/705/605
f 605/705/605 609/709/609 606/706/606
f 609/709/609 610/710/610 606/706/606
f 606/706/606 610/710/610 44/590/44
f 610/710/610 43/592/43 44/590/44
f 38/578/38 611/700/611 607/711/607
f 611/700/611 612/712/612 607/711/607
f 607/711/607 612/712/612 608/713/608
f 612/712/612 613/714/613 608/713/608
f 608/708/608 613/715/613 609/709/609
f 613/715/613 614/716/614 609/709/609
f 609/709/609 614/716/614 610/710/610
f 614/716/614 615/717/615 610/710/610
f 610/710/610 615/717/615 43/592/43
f 615/717/615 42/594/42 43/592/43
f 39/577/39 616/701/616 611/700/611
f 616/701/616 617/718/617 611/700/611
f 611/700/611 617/718/617 612/712/612
f 617/718/617 618/719/618 612/712/612
f 612/712/612 618/719/618 613/714/613
f 618/720/618 619/721/619 613/715/613
f 613/715/613 619/721/619 614/716/614
f 619/721/619 620/722/620 614/716/614
f 614/716/614 620/722/620 615/717/615
f 620/722/620 621/723/621 615/717/615
f 615/717/615 621/723/621 42/594/42
f 621/723/621 41/9/41 42/594/42
f 40/6/40 26/5/26 616/701/616
f 26/5/26 25/724/25 616/701/616
f 616/701/616 25/724/25 617/718/617
f 25/724/25 24/725/24 617/718/617
f 617/718/617 24/725/24 618/719/618
f 24/725/24 23/726/23 618/719/618
f 618/719/618 23/726/23 619/727/619
f 23/728/23 22/729/22 619/721/619
f 619/721/619 22/729/22 620/722/620
f 22/729/22 21/730/21 620/722/620
f 620/722/620 21/730/21 621/723/621
f 21/730/21 20/2/20 621/723/621
f 621/723/621 20/2/20 41/9/41
f 20/2/20 1/1/1 41/9/41
f 13/695/13 33/12/33 3/11/3
f 14/694/14 622/731/622 13/695/13
f 15/693/15 623/732/623 14/694/14
f 16/692/16 625/733/625 15/693/15
f 17/690/17 628/734/628 16/691/16
f 18/689/18 632/735/632 17/690/17
f 19/3/19 637/736/637 18/689/18
f 13/737/13 622/738/622 33/545/33
f 622/738/622 32/546/32 33/545/33
f 14/739/14 623/740/623 622/738/622
f 623/740/623 624/741/624 622/738/622
f 622/738/622 624/741/624 32/546/32
f 624/741/624 31/547/31 32/546/32
f 15/742/15 625/743/625 623/740/623
f 625/743/625 626/744/626 623/740/623
f 623/740/623 626/744/626 624/741/624
f 626/744/626 627/745/627 624/741/624
f 624/741/624 627/745/627 31/547/31
f 627/745/627 30/548/30 31/547/31
f 16/746/16 628/747/628 625/743/625
f 628/747/628 629/748/629 625/743/625
f 625/743/625 629/748/629 626/744/626
f 629/748/629 630/749/630 626/744/626
f 626/744/626 630/749/630 627/745/627
f 630/749/630 631/750/631 627/745/627
f 627/745/627 631/750/631 30/548/30
f 631/750/631 29/549/29 30/548/30
f 17/690/17 632/735/632 628/734/628
f 632/735/632 633/751/633 628/734/628
f 628/747/628 633/752/633 629/748/629
f 633/752/633 634/753/634 629/748/629
f 629/748/629 634/753/634 630/749/630
f 634/753/634 635/754/635 630/749/630
f 630/749/630 635/754/635 631/750/631
f 635/754/635 636/755/636 631/750/631
f 631/750/631 636/755/636 29/549/29
f 636/755/636 28/550/28 29/549/29
f 18/689/18 637/736/637 632/735/632
f 637/736/637 638/756/638 632/735/632
f 632/735/632 638/756/638 633/751/633
f 638/756/638 639/757/639 633/751/633
f 633/752/633 639/758/639 634/753/634
f 639/758/639 640/759/640 634/753/634
f 634/753/634 640/759/640 635/754/635
f 640/759/640 641/760/641 635/754/635
f 635/754/635 641/760/641 636/755/636
f 641/760/641 642/761/642 636/755/636
f 636/755/636 642/761/642 28/550/28
f 642/761/642 27/551/27 28/550/28
f 19/3/19 20/2/20 637/736/637
f 20/2/20 21/730/21 637/736/637
f 637/736/637 21/730/21 638/756/638
f 21/730/21 22/729/22 638/756/638
f 638/756/638 22/729/22 639/757/639
f 22/762/22 23/726/23 639/758/639
f 639/758/639 23/726/23 640/759/640
f 23/726/23 24/725/24 640/759/640
f 640/759/640 24/725/24 641/760/641
f 24/725/24 25/724/25 641/760/641
f 641/760/641 25/724/25 642/761/642
f 25/724/25 26/5/26 642/761/642
f 642/761/642 26/5/26 27/551/27
f 26/5/26 2/4/2 27/551/27
